<?xml version="1.0" standalone="no"?>
<!DOCTYPE svg PUBLIC "-//W3C//DTD SVG 1.1//EN" "http://www.w3.org/Graphics/SVG/1.1/DTD/svg11.dtd">
<svg version="1.1" width="1200" height="630" onload="init(evt)" viewBox="0 0 1200 630" xmlns="http://www.w3.org/2000/svg" xmlns:xlink="http://www.w3.org/1999/xlink">
<style type="text/css">
	text { font-family:Verdana; font-size:12px; fill:rgb(0,0,0); }
	#search { opacity:0.1; cursor:pointer; }
	#search:hover, #search.show { opacity:1; }
	#subtitle { text-anchor:middle; font-color:rgb(160,160,160); }
	#title { text-anchor:middle; font-size:17px}
	#unzoom { cursor:pointer; }
	#frames > *:hover { stroke:black; stroke-width:0.5; cursor:pointer; }
	.hide { display:none; }
	.parent { opacity:0.5; }
</style>
<script type="text/ecmascript">
<![CDATA[
	"use strict";
	var details, searchbtn, unzoombtn, matchedtxt, svg, searching;
	function init(evt) {
		details = document.getElementById("details").firstChild;
		searchbtn = document.getElementById("search");
		unzoombtn = document.getElementById("unzoom");
		matchedtxt = document.getElementById("matched");
		svg = document.getElementsByTagName("svg")[0];
		searching = 0;
	}

	window.addEventListener("click", function(e) {
		var target = find_group(e.target);
		if (target) {
			if (target.nodeName == "a") {
				if (e.ctrlKey === false) return;
				e.preventDefault();
			}
			if (target.classList.contains("parent")) unzoom();
			zoom(target);
		}
		else if (e.target.id == "unzoom") unzoom();
		else if (e.target.id == "search") search_prompt();
	}, false)

	// mouse-over for info
	// show
	window.addEventListener("mouseover", function(e) {
		var target = find_group(e.target);
		if (target) details.nodeValue = "Function: " + g_to_text(target);
	}, false)

	// clear
	window.addEventListener("mouseout", function(e) {
		var target = find_group(e.target);
		if (target) details.nodeValue = ' ';
	}, false)

	// ctrl-F for search
	window.addEventListener("keydown",function (e) {
		if (e.keyCode === 114 || (e.ctrlKey && e.keyCode === 70)) {
			e.preventDefault();
			search_prompt();
		}
	}, false)

	// functions
	function find_child(node, selector) {
		var children = node.querySelectorAll(selector);
		if (children.length) return children[0];
		return;
	}
	function find_group(node) {
		var parent = node.parentElement;
		if (!parent) return;
		if (parent.id == "frames") return node;
		return find_group(parent);
	}
	function orig_save(e, attr, val) {
		if (e.attributes["_orig_" + attr] != undefined) return;
		if (e.attributes[attr] == undefined) return;
		if (val == undefined) val = e.attributes[attr].value;
		e.setAttribute("_orig_" + attr, val);
	}
	function orig_load(e, attr) {
		if (e.attributes["_orig_"+attr] == undefined) return;
		e.attributes[attr].value = e.attributes["_orig_" + attr].value;
		e.removeAttribute("_orig_"+attr);
	}
	function g_to_text(e) {
		var text = find_child(e, "title").firstChild.nodeValue;
		return (text)
	}
	function g_to_func(e) {
		var func = g_to_text(e);
		// if there's any manipulation we want to do to the function
		// name before it's searched, do it here before returning.
		return (func);
	}
	function update_text(e) {
		var r = find_child(e, "rect");
		var t = find_child(e, "text");
		var w = parseFloat(r.attributes.width.value) -3;
		var txt = find_child(e, "title").textContent.replace(/\([^(]*\)$/,"");
		t.attributes.x.value = parseFloat(r.attributes.x.value) + 3;

		// Smaller than this size won't fit anything
		if (w < 2 * 12 * 0.59) {
			t.textContent = "";
			return;
		}

		t.textContent = txt;
		// Fit in full text width
		if (/^ *$/.test(txt) || t.getSubStringLength(0, txt.length) < w)
			return;

		for (var x = txt.length - 2; x > 0; x--) {
			if (t.getSubStringLength(0, x + 2) <= w) {
				t.textContent = txt.substring(0, x) + "..";
				return;
			}
		}
		t.textContent = "";
	}

	// zoom
	function zoom_reset(e) {
		if (e.attributes != undefined) {
			orig_load(e, "x");
			orig_load(e, "width");
		}
		if (e.childNodes == undefined) return;
		for (var i = 0, c = e.childNodes; i < c.length; i++) {
			zoom_reset(c[i]);
		}
	}
	function zoom_child(e, x, ratio) {
		if (e.attributes != undefined) {
			if (e.attributes.x != undefined) {
				orig_save(e, "x");
				e.attributes.x.value = (parseFloat(e.attributes.x.value) - x - 10) * ratio + 10;
				if (e.tagName == "text")
					e.attributes.x.value = find_child(e.parentNode, "rect[x]").attributes.x.value + 3;
			}
			if (e.attributes.width != undefined) {
				orig_save(e, "width");
				e.attributes.width.value = parseFloat(e.attributes.width.value) * ratio;
			}
		}

		if (e.childNodes == undefined) return;
		for (var i = 0, c = e.childNodes; i < c.length; i++) {
			zoom_child(c[i], x - 10, ratio);
		}
	}
	function zoom_parent(e) {
		if (e.attributes) {
			if (e.attributes.x != undefined) {
				orig_save(e, "x");
				e.attributes.x.value = 10;
			}
			if (e.attributes.width != undefined) {
				orig_save(e, "width");
				e.attributes.width.value = parseInt(svg.width.baseVal.value) - (10 * 2);
			}
		}
		if (e.childNodes == undefined) return;
		for (var i = 0, c = e.childNodes; i < c.length; i++) {
			zoom_parent(c[i]);
		}
	}
	function zoom(node) {
		var attr = find_child(node, "rect").attributes;
		var width = parseFloat(attr.width.value);
		var xmin = parseFloat(attr.x.value);
		var xmax = parseFloat(xmin + width);
		var ymin = parseFloat(attr.y.value);
		var ratio = (svg.width.baseVal.value - 2 * 10) / width;

		// XXX: Workaround for JavaScript float issues (fix me)
		var fudge = 0.0001;

		unzoombtn.classList.remove("hide");

		var el = document.getElementById("frames").children;
		for (var i = 0; i < el.length; i++) {
			var e = el[i];
			var a = find_child(e, "rect").attributes;
			var ex = parseFloat(a.x.value);
			var ew = parseFloat(a.width.value);
			var upstack;
			// Is it an ancestor
			if (0 == 0) {
				upstack = parseFloat(a.y.value) > ymin;
			} else {
				upstack = parseFloat(a.y.value) < ymin;
			}
			if (upstack) {
				// Direct ancestor
				if (ex <= xmin && (ex+ew+fudge) >= xmax) {
					e.classList.add("parent");
					zoom_parent(e);
					update_text(e);
				}
				// not in current path
				else
					e.classList.add("hide");
			}
			// Children maybe
			else {
				// no common path
				if (ex < xmin || ex + fudge >= xmax) {
					e.classList.add("hide");
				}
				else {
					zoom_child(e, xmin, ratio);
					update_text(e);
				}
			}
		}
	}
	function unzoom() {
		unzoombtn.classList.add("hide");
		var el = document.getElementById("frames").children;
		for(var i = 0; i < el.length; i++) {
			el[i].classList.remove("parent");
			el[i].classList.remove("hide");
			zoom_reset(el[i]);
			update_text(el[i]);
		}
	}

	// search
	function reset_search() {
		var el = document.querySelectorAll("#frames rect");
		for (var i = 0; i < el.length; i++) {
			orig_load(el[i], "fill")
		}
	}
	function search_prompt() {
		if (!searching) {
			var term = prompt("Enter a search term (regexp " +
			    "allowed, eg: ^ext4_)", "");
			if (term != null) {
				search(term)
			}
		} else {
			reset_search();
			searching = 0;
			searchbtn.classList.remove("show");
			searchbtn.firstChild.nodeValue = "Search"
			matchedtxt.classList.add("hide");
			matchedtxt.firstChild.nodeValue = ""
		}
	}
	function search(term) {
		var re = new RegExp(term);
		var el = document.getElementById("frames").children;
		var matches = new Object();
		var maxwidth = 0;
		for (var i = 0; i < el.length; i++) {
			var e = el[i];
			var func = g_to_func(e);
			var rect = find_child(e, "rect");
			if (func == null || rect == null)
				continue;

			// Save max width. Only works as we have a root frame
			var w = parseFloat(rect.attributes.width.value);
			if (w > maxwidth)
				maxwidth = w;

			if (func.match(re)) {
				// highlight
				var x = parseFloat(rect.attributes.x.value);
				orig_save(rect, "fill");
				rect.attributes.fill.value = "rgb(230,0,230)";

				// remember matches
				if (matches[x] == undefined) {
					matches[x] = w;
				} else {
					if (w > matches[x]) {
						// overwrite with parent
						matches[x] = w;
					}
				}
				searching = 1;
			}
		}
		if (!searching)
			return;

		searchbtn.classList.add("show");
		searchbtn.firstChild.nodeValue = "Reset Search";

		// calculate percent matched, excluding vertical overlap
		var count = 0;
		var lastx = -1;
		var lastw = 0;
		var keys = Array();
		for (k in matches) {
			if (matches.hasOwnProperty(k))
				keys.push(k);
		}
		// sort the matched frames by their x location
		// ascending, then width descending
		keys.sort(function(a, b){
			return a - b;
		});
		// Step through frames saving only the biggest bottom-up frames
		// thanks to the sort order. This relies on the tree property
		// where children are always smaller than their parents.
		var fudge = 0.0001;	// JavaScript floating point
		for (var k in keys) {
			var x = parseFloat(keys[k]);
			var w = matches[keys[k]];
			if (x >= lastx + lastw - fudge) {
				count += w;
				lastx = x;
				lastw = w;
			}
		}
		// display matched percent
		matchedtxt.classList.remove("hide");
		var pct = 100 * count / maxwidth;
		if (pct != 100) pct = pct.toFixed(1)
		matchedtxt.firstChild.nodeValue = "Matched: " + pct + "%";
	}
]]>
</script>
<rect x="0" y="0" width="100%" height="100%" fill="rgb(240,240,220)"/>
<text id="title" x="600" y="24">Flame Graph</text>
<text id="details" x="10" y="613"> </text>
<text id="unzoom" x="10" y="24" class="hide">Reset Zoom</text>
<text id="search" x="1090" y="24">Search</text>
<text id="matched" x="1090" y="613"> </text>
<g id="frames">
<g>
<title>all (57,324 samples, 100.00%)</title><rect x="10.0" y="579.0" width="1180.0" height="15" fill="#e96565" rx="2" ry="2"/>
<text x="13.0" y="590.0">all</text>
</g>
<g>
<title>java/lang/Thread.run (25,753 samples, 44.93%)</title><rect x="10.0" y="563.0" width="530.1" height="15" fill="#60f160" rx="2" ry="2"/>
<text x="13.0" y="574.0">java/lang/Thread.run</text>
</g>
<g>
<title>java/util/concurrent/ThreadPoolExecutor$Worker.run (25,753 samples, 44.93%)</title><rect x="10.0" y="547.0" width="530.1" height="15" fill="#6bfc6b" rx="2" ry="2"/>
<text x="13.0" y="558.0">java/util/concurrent/ThreadPoolExecutor$Worker.run</text>
</g>
<g>
<title>java/util/concurrent/ThreadPoolExecutor.runWorker (25,753 samples, 44.93%)</title><rect x="10.0" y="531.0" width="530.1" height="15" fill="#58e958" rx="2" ry="2"/>
<text x="13.0" y="542.0">java/util/concurrent/ThreadPoolExecutor.runWorker</text>
</g>
<g>
<title>java/util/concurrent/CompletableFuture$AsyncSupply.run (16,326 samples, 28.48%)</title><rect x="10.0" y="515.0" width="336.1" height="15" fill="#5eef5e" rx="2" ry="2"/>
<text x="13.0" y="526.0">java/util/concurrent/CompletableFuture$AsyncSu..</text>
</g>
<g>
<title>java/util/concurrent/CompletableFuture.postComplete (16,326 samples, 28.48%)</title><rect x="10.0" y="499.0" width="336.1" height="15" fill="#63f463" rx="2" ry="2"/>
<text x="13.0" y="510.0">java/util/concurrent/CompletableFuture.postCom..</text>
</g>
<g>
<title>java/util/concurrent/CompletableFuture$UniCompose.tryFire (16,326 samples, 28.48%)</title><rect x="10.0" y="483.0" width="336.1" height="15" fill="#5bec5b" rx="2" ry="2"/>
<text x="13.0" y="494.0">java/util/concurrent/CompletableFuture$UniComp..</text>
</g>
<g>
<title>jdk/internal/net/http/MultiExchange$$Lambda$153/1249503175.apply (16,326 samples, 28.48%)</title><rect x="10.0" y="467.0" width="336.1" height="15" fill="#6cfd6c" rx="2" ry="2"/>
<text x="13.0" y="478.0">jdk/internal/net/http/MultiExchange$$Lambda$15..</text>
</g>
<g>
<title>jdk/internal/net/http/MultiExchange.lambda$responseAsync0$2 (16,326 samples, 28.48%)</title><rect x="10.0" y="451.0" width="336.1" height="15" fill="#54e554" rx="2" ry="2"/>
<text x="13.0" y="462.0">jdk/internal/net/http/MultiExchange.lambda$res..</text>
</g>
<g>
<title>jdk/internal/net/http/MultiExchange.responseAsyncImpl (16,326 samples, 28.48%)</title><rect x="10.0" y="435.0" width="336.1" height="15" fill="#65f665" rx="2" ry="2"/>
<text x="13.0" y="446.0">jdk/internal/net/http/MultiExchange.responseAs..</text>
</g>
<g>
<title>jdk/internal/net/http/Exchange.responseAsync (11,730 samples, 20.46%)</title><rect x="10.0" y="419.0" width="241.5" height="15" fill="#65f665" rx="2" ry="2"/>
<text x="13.0" y="430.0">jdk/internal/net/http/Exchange.r..</text>
</g>
<g>
<title>jdk/internal/net/http/Exchange.responseAsyncImpl (11,730 samples, 20.46%)</title><rect x="10.0" y="403.0" width="241.5" height="15" fill="#68f968" rx="2" ry="2"/>
<text x="13.0" y="414.0">jdk/internal/net/http/Exchange.r..</text>
</g>
<g>
<title>jdk/internal/net/http/Exchange.responseAsyncImpl0 (11,730 samples, 20.46%)</title><rect x="10.0" y="387.0" width="241.5" height="15" fill="#5ced5c" rx="2" ry="2"/>
<text x="13.0" y="398.0">jdk/internal/net/http/Exchange.r..</text>
</g>
<g>
<title>java/util/concurrent/CompletableFuture.handle (11,723 samples, 20.45%)</title><rect x="10.0" y="371.0" width="241.3" height="15" fill="#69fa69" rx="2" ry="2"/>
<text x="13.0" y="382.0">java/util/concurrent/Completable..</text>
</g>
<g>
<title>java/util/concurrent/CompletableFuture.uniHandleStage (11,723 samples, 20.45%)</title><rect x="10.0" y="355.0" width="241.3" height="15" fill="#62f362" rx="2" ry="2"/>
<text x="13.0" y="366.0">java/util/concurrent/Completable..</text>
</g>
<g>
<title>java/util/concurrent/CompletableFuture.uniHandle (11,723 samples, 20.45%)</title><rect x="10.0" y="339.0" width="241.3" height="15" fill="#58e958" rx="2" ry="2"/>
<text x="13.0" y="350.0">java/util/concurrent/Completable..</text>
</g>
<g>
<title>jdk/internal/net/http/Exchange$$Lambda$245/351709695.apply (11,723 samples, 20.45%)</title><rect x="10.0" y="323.0" width="241.3" height="15" fill="#50e150" rx="2" ry="2"/>
<text x="13.0" y="334.0">jdk/internal/net/http/Exchange$$..</text>
</g>
<g>
<title>jdk/internal/net/http/Exchange.lambda$responseAsyncImpl0$9 (11,723 samples, 20.45%)</title><rect x="10.0" y="307.0" width="241.3" height="15" fill="#5bec5b" rx="2" ry="2"/>
<text x="13.0" y="318.0">jdk/internal/net/http/Exchange.l..</text>
</g>
<g>
<title>jdk/internal/net/http/Exchange.checkFor407 (11,723 samples, 20.45%)</title><rect x="10.0" y="291.0" width="241.3" height="15" fill="#65f665" rx="2" ry="2"/>
<text x="13.0" y="302.0">jdk/internal/net/http/Exchange.c..</text>
</g>
<g>
<title>jdk/internal/net/http/Exchange$$Lambda$170/678742413.apply (11,723 samples, 20.45%)</title><rect x="10.0" y="275.0" width="241.3" height="15" fill="#6cfd6c" rx="2" ry="2"/>
<text x="13.0" y="286.0">jdk/internal/net/http/Exchange$$..</text>
</g>
<g>
<title>jdk/internal/net/http/Exchange.lambda$responseAsyncImpl0$8 (11,723 samples, 20.45%)</title><rect x="10.0" y="259.0" width="241.3" height="15" fill="#52e352" rx="2" ry="2"/>
<text x="13.0" y="270.0">jdk/internal/net/http/Exchange.l..</text>
</g>
<g>
<title>jdk/internal/net/http/Http1Exchange.sendHeadersAsync (11,723 samples, 20.45%)</title><rect x="10.0" y="243.0" width="241.3" height="15" fill="#58e958" rx="2" ry="2"/>
<text x="13.0" y="254.0">jdk/internal/net/http/Http1Excha..</text>
</g>
<g>
<title>java/util/concurrent/CompletableFuture.thenCompose (11,723 samples, 20.45%)</title><rect x="10.0" y="227.0" width="241.3" height="15" fill="#65f665" rx="2" ry="2"/>
<text x="13.0" y="238.0">java/util/concurrent/Completable..</text>
</g>
<g>
<title>java/util/concurrent/CompletableFuture.uniComposeStage (11,723 samples, 20.45%)</title><rect x="10.0" y="211.0" width="241.3" height="15" fill="#59ea59" rx="2" ry="2"/>
<text x="13.0" y="222.0">java/util/concurrent/Completable..</text>
</g>
<g>
<title>jdk/internal/net/http/Http1Exchange$$Lambda$281/1002612192.apply (11,723 samples, 20.45%)</title><rect x="10.0" y="195.0" width="241.3" height="15" fill="#63f463" rx="2" ry="2"/>
<text x="13.0" y="206.0">jdk/internal/net/http/Http1Excha..</text>
</g>
<g>
<title>jdk/internal/net/http/Http1Exchange.lambda$sendHeadersAsync$4 (11,723 samples, 20.45%)</title><rect x="10.0" y="179.0" width="241.3" height="15" fill="#65f665" rx="2" ry="2"/>
<text x="13.0" y="190.0">jdk/internal/net/http/Http1Excha..</text>
</g>
<g>
<title>jdk/internal/net/http/Http1Exchange.connectFlows (11,723 samples, 20.45%)</title><rect x="10.0" y="163.0" width="241.3" height="15" fill="#64f564" rx="2" ry="2"/>
<text x="13.0" y="174.0">jdk/internal/net/http/Http1Excha..</text>
</g>
<g>
<title>jdk/internal/net/http/SocketTube.connectFlows (11,723 samples, 20.45%)</title><rect x="10.0" y="147.0" width="241.3" height="15" fill="#6dfe6d" rx="2" ry="2"/>
<text x="13.0" y="158.0">jdk/internal/net/http/SocketTube..</text>
</g>
<g>
<title>jdk/internal/net/http/Http1Exchange$Http1Publisher.subscribe (3,869 samples, 6.75%)</title><rect x="10.0" y="131.0" width="79.7" height="15" fill="#5aeb5a" rx="2" ry="2"/>
<text x="13.0" y="142.0">jdk/inter..</text>
</g>
<g>
<title>jdk/internal/net/http/SocketTube.onSubscribe (3,869 samples, 6.75%)</title><rect x="10.0" y="115.0" width="79.7" height="15" fill="#54e554" rx="2" ry="2"/>
<text x="13.0" y="126.0">jdk/inter..</text>
</g>
<g>
<title>jdk/internal/net/http/SocketTube$InternalWriteSubscriber.onSubscribe (3,869 samples, 6.75%)</title><rect x="10.0" y="99.0" width="79.7" height="15" fill="#56e756" rx="2" ry="2"/>
<text x="13.0" y="110.0">jdk/inter..</text>
</g>
<g>
<title>jdk/internal/net/http/HttpClientImpl.registerEvent (3,869 samples, 6.75%)</title><rect x="10.0" y="83.0" width="79.7" height="15" fill="#63f463" rx="2" ry="2"/>
<text x="13.0" y="94.0">jdk/inter..</text>
</g>
<g>
<title>jdk/internal/net/http/HttpClientImpl$SelectorManager.register (3,869 samples, 6.75%)</title><rect x="10.0" y="67.0" width="79.7" height="15" fill="#64f564" rx="2" ry="2"/>
<text x="13.0" y="78.0">jdk/inter..</text>
</g>
<g>
<title>jdk.internal.net.http.HttpClientImpl$SelectorManager (628 samples, 1.10%)</title><rect x="10.0" y="51.0" width="12.9" height="15" fill="#54c2c2" rx="2" ry="2"/>
<text x="13.0" y="62.0"></text>
</g>
<g>
<title>sun/nio/ch/EPollSelectorImpl.wakeup (3,241 samples, 5.65%)</title><rect x="22.9" y="51.0" width="66.8" height="15" fill="#6bfc6b" rx="2" ry="2"/>
<text x="25.9" y="62.0">sun/nio..</text>
</g>
<g>
<title>java.lang.Object (3,241 samples, 5.65%)</title><rect x="22.9" y="35.0" width="66.8" height="15" fill="#55c3c3" rx="2" ry="2"/>
<text x="25.9" y="46.0">java.la..</text>
</g>
<g>
<title>jdk/internal/net/http/SocketTube.subscribe (7,854 samples, 13.70%)</title><rect x="89.7" y="131.0" width="161.6" height="15" fill="#67f867" rx="2" ry="2"/>
<text x="92.7" y="142.0">jdk/internal/net/http..</text>
</g>
<g>
<title>jdk/internal/net/http/SocketTube$InternalReadPublisher.subscribe (7,854 samples, 13.70%)</title><rect x="89.7" y="115.0" width="161.6" height="15" fill="#59ea59" rx="2" ry="2"/>
<text x="92.7" y="126.0">jdk/internal/net/http..</text>
</g>
<g>
<title>jdk/internal/net/http/SocketTube$InternalReadPublisher$InternalReadSubscription.signalSubscribe (7,854 samples, 13.70%)</title><rect x="89.7" y="99.0" width="161.6" height="15" fill="#53e453" rx="2" ry="2"/>
<text x="92.7" y="110.0">jdk/internal/net/http..</text>
</g>
<g>
<title>jdk/internal/net/http/HttpClientImpl.registerEvent (7,854 samples, 13.70%)</title><rect x="89.7" y="83.0" width="161.6" height="15" fill="#6cfd6c" rx="2" ry="2"/>
<text x="92.7" y="94.0">jdk/internal/net/http..</text>
</g>
<g>
<title>jdk/internal/net/http/HttpClientImpl$SelectorManager.register (7,854 samples, 13.70%)</title><rect x="89.7" y="67.0" width="161.6" height="15" fill="#51e251" rx="2" ry="2"/>
<text x="92.7" y="78.0">jdk/internal/net/http..</text>
</g>
<g>
<title>jdk.internal.net.http.HttpClientImpl$SelectorManager (3,928 samples, 6.85%)</title><rect x="89.7" y="51.0" width="80.8" height="15" fill="#69d7d7" rx="2" ry="2"/>
<text x="92.7" y="62.0">jdk.inter..</text>
</g>
<g>
<title>sun/nio/ch/EPollSelectorImpl.wakeup (3,926 samples, 6.85%)</title><rect x="170.5" y="51.0" width="80.8" height="15" fill="#67f867" rx="2" ry="2"/>
<text x="173.5" y="62.0">sun/nio/c..</text>
</g>
<g>
<title>java.lang.Object (3,926 samples, 6.85%)</title><rect x="170.5" y="35.0" width="80.8" height="15" fill="#5ecccc" rx="2" ry="2"/>
<text x="173.5" y="46.0">java.lang..</text>
</g>
<g>
<title>jdk/internal/net/http/HttpClientImpl.registerTimer (4,596 samples, 8.02%)</title><rect x="251.5" y="419.0" width="94.6" height="15" fill="#64f564" rx="2" ry="2"/>
<text x="254.5" y="430.0">jdk/interna..</text>
</g>
<g>
<title>jdk.internal.net.http.HttpClientImpl (1,698 samples, 2.96%)</title><rect x="251.5" y="403.0" width="34.9" height="15" fill="#5bc9c9" rx="2" ry="2"/>
<text x="254.5" y="414.0">jd..</text>
</g>
<g>
<title>jdk/internal/net/http/HttpClientImpl$SelectorManager.wakeupSelector (2,898 samples, 5.06%)</title><rect x="286.4" y="403.0" width="59.7" height="15" fill="#66f766" rx="2" ry="2"/>
<text x="289.4" y="414.0">jdk/in..</text>
</g>
<g>
<title>sun/nio/ch/EPollSelectorImpl.wakeup (2,898 samples, 5.06%)</title><rect x="286.4" y="387.0" width="59.7" height="15" fill="#65f665" rx="2" ry="2"/>
<text x="289.4" y="398.0">sun/ni..</text>
</g>
<g>
<title>java.lang.Object (2,898 samples, 5.06%)</title><rect x="286.4" y="371.0" width="59.7" height="15" fill="#67d5d5" rx="2" ry="2"/>
<text x="289.4" y="382.0">java.l..</text>
</g>
<g>
<title>jdk/internal/net/http/common/SequentialScheduler$SchedulableTask.run (9,393 samples, 16.39%)</title><rect x="346.1" y="515.0" width="193.3" height="15" fill="#5dee5d" rx="2" ry="2"/>
<text x="349.1" y="526.0">jdk/internal/net/http/com..</text>
</g>
<g>
<title>jdk/internal/net/http/common/SequentialScheduler$CompleteRestartableTask.run (9,393 samples, 16.39%)</title><rect x="346.1" y="499.0" width="193.3" height="15" fill="#63f463" rx="2" ry="2"/>
<text x="349.1" y="510.0">jdk/internal/net/http/com..</text>
</g>
<g>
<title>jdk/internal/net/http/common/SequentialScheduler$SynchronizedRestartableTask.run (4,603 samples, 8.03%)</title><rect x="346.1" y="483.0" width="94.7" height="15" fill="#69fa69" rx="2" ry="2"/>
<text x="349.1" y="494.0">jdk/interna..</text>
</g>
<g>
<title>jdk/internal/net/http/Http1AsyncReceiver$$Lambda$236/621309814.run (4,603 samples, 8.03%)</title><rect x="346.1" y="467.0" width="94.7" height="15" fill="#65f665" rx="2" ry="2"/>
<text x="349.1" y="478.0">jdk/interna..</text>
</g>
<g>
<title>jdk/internal/net/http/Http1AsyncReceiver.flush (4,603 samples, 8.03%)</title><rect x="346.1" y="451.0" width="94.7" height="15" fill="#5bec5b" rx="2" ry="2"/>
<text x="349.1" y="462.0">jdk/interna..</text>
</g>
<g>
<title>jdk/internal/net/http/Http1AsyncReceiver.checkRequestMore (4,341 samples, 7.57%)</title><rect x="346.1" y="435.0" width="89.3" height="15" fill="#55e655" rx="2" ry="2"/>
<text x="349.1" y="446.0">jdk/intern..</text>
</g>
<g>
<title>jdk/internal/net/http/Http1AsyncReceiver$Http1TubeSubscriber.requestMore (4,341 samples, 7.57%)</title><rect x="346.1" y="419.0" width="89.3" height="15" fill="#5bec5b" rx="2" ry="2"/>
<text x="349.1" y="430.0">jdk/intern..</text>
</g>
<g>
<title>jdk/internal/net/http/SocketTube$InternalReadPublisher$ReadSubscription.request (4,341 samples, 7.57%)</title><rect x="346.1" y="403.0" width="89.3" height="15" fill="#52e352" rx="2" ry="2"/>
<text x="349.1" y="414.0">jdk/intern..</text>
</g>
<g>
<title>jdk/internal/net/http/SocketTube$InternalReadPublisher$InternalReadSubscription.request (4,341 samples, 7.57%)</title><rect x="346.1" y="387.0" width="89.3" height="15" fill="#69fa69" rx="2" ry="2"/>
<text x="349.1" y="398.0">jdk/intern..</text>
</g>
<g>
<title>jdk/internal/net/http/SocketTube$InternalReadPublisher$InternalReadSubscription.resumeReadEvent (4,341 samples, 7.57%)</title><rect x="346.1" y="371.0" width="89.3" height="15" fill="#5bec5b" rx="2" ry="2"/>
<text x="349.1" y="382.0">jdk/intern..</text>
</g>
<g>
<title>jdk/internal/net/http/SocketTube.resumeEvent (4,341 samples, 7.57%)</title><rect x="346.1" y="355.0" width="89.3" height="15" fill="#5dee5d" rx="2" ry="2"/>
<text x="349.1" y="366.0">jdk/intern..</text>
</g>
<g>
<title>jdk/internal/net/http/HttpClientImpl.eventUpdated (4,341 samples, 7.57%)</title><rect x="346.1" y="339.0" width="89.3" height="15" fill="#6dfe6d" rx="2" ry="2"/>
<text x="349.1" y="350.0">jdk/intern..</text>
</g>
<g>
<title>jdk/internal/net/http/HttpClientImpl$SelectorManager.eventUpdated (4,341 samples, 7.57%)</title><rect x="346.1" y="323.0" width="89.3" height="15" fill="#61f261" rx="2" ry="2"/>
<text x="349.1" y="334.0">jdk/intern..</text>
</g>
<g>
<title>jdk/internal/net/http/HttpClientImpl$SelectorManager.register (4,341 samples, 7.57%)</title><rect x="346.1" y="307.0" width="89.3" height="15" fill="#52e352" rx="2" ry="2"/>
<text x="349.1" y="318.0">jdk/intern..</text>
</g>
<g>
<title>jdk.internal.net.http.HttpClientImpl$SelectorManager (2,908 samples, 5.07%)</title><rect x="346.1" y="291.0" width="59.8" height="15" fill="#64d2d2" rx="2" ry="2"/>
<text x="349.1" y="302.0">jdk.in..</text>
</g>
<g>
<title>sun/nio/ch/EPollSelectorImpl.wakeup (1,433 samples, 2.50%)</title><rect x="405.9" y="291.0" width="29.5" height="15" fill="#65f665" rx="2" ry="2"/>
<text x="408.9" y="302.0">su..</text>
</g>
<g>
<title>java.lang.Object (1,433 samples, 2.50%)</title><rect x="405.9" y="275.0" width="29.5" height="15" fill="#50bebe" rx="2" ry="2"/>
<text x="408.9" y="286.0">ja..</text>
</g>
<g>
<title>jdk/internal/net/http/Http1Response$HeadersReader.tryAsyncReceive (262 samples, 0.46%)</title><rect x="435.4" y="435.0" width="5.4" height="15" fill="#6afb6a" rx="2" ry="2"/>
<text x="438.4" y="446.0"></text>
</g>
<g>
<title>jdk/internal/net/http/Http1Response$Receiver.accept (262 samples, 0.46%)</title><rect x="435.4" y="419.0" width="5.4" height="15" fill="#5ff05f" rx="2" ry="2"/>
<text x="438.4" y="430.0"></text>
</g>
<g>
<title>jdk/internal/net/http/Http1Response$HeadersReader.handle (262 samples, 0.46%)</title><rect x="435.4" y="403.0" width="5.4" height="15" fill="#5aeb5a" rx="2" ry="2"/>
<text x="438.4" y="414.0"></text>
</g>
<g>
<title>jdk/internal/net/http/Http1Response$HeadersReader.handle (262 samples, 0.46%)</title><rect x="435.4" y="387.0" width="5.4" height="15" fill="#6dfe6d" rx="2" ry="2"/>
<text x="438.4" y="398.0"></text>
</g>
<g>
<title>java/util/concurrent/CompletableFuture.complete (262 samples, 0.46%)</title><rect x="435.4" y="371.0" width="5.4" height="15" fill="#5dee5d" rx="2" ry="2"/>
<text x="438.4" y="382.0"></text>
</g>
<g>
<title>java/util/concurrent/CompletableFuture.postComplete (262 samples, 0.46%)</title><rect x="435.4" y="355.0" width="5.4" height="15" fill="#5bec5b" rx="2" ry="2"/>
<text x="438.4" y="366.0"></text>
</g>
<g>
<title>java/util/concurrent/CompletableFuture$UniApply.tryFire (262 samples, 0.46%)</title><rect x="435.4" y="339.0" width="5.4" height="15" fill="#68f968" rx="2" ry="2"/>
<text x="438.4" y="350.0"></text>
</g>
<g>
<title>java/util/concurrent/CompletableFuture$UniCompletion.claim (262 samples, 0.46%)</title><rect x="435.4" y="323.0" width="5.4" height="15" fill="#56e756" rx="2" ry="2"/>
<text x="438.4" y="334.0"></text>
</g>
<g>
<title>jdk/internal/net/http/HttpClientImpl$DelegatingExecutor.execute (262 samples, 0.46%)</title><rect x="435.4" y="307.0" width="5.4" height="15" fill="#69fa69" rx="2" ry="2"/>
<text x="438.4" y="318.0"></text>
</g>
<g>
<title>java/util/concurrent/CompletableFuture$Completion.run (262 samples, 0.46%)</title><rect x="435.4" y="291.0" width="5.4" height="15" fill="#5ff05f" rx="2" ry="2"/>
<text x="438.4" y="302.0"></text>
</g>
<g>
<title>java/util/concurrent/CompletableFuture$UniApply.tryFire (262 samples, 0.46%)</title><rect x="435.4" y="275.0" width="5.4" height="15" fill="#62f362" rx="2" ry="2"/>
<text x="438.4" y="286.0"></text>
</g>
<g>
<title>java/util/concurrent/CompletableFuture.postFire (262 samples, 0.46%)</title><rect x="435.4" y="259.0" width="5.4" height="15" fill="#61f261" rx="2" ry="2"/>
<text x="438.4" y="270.0"></text>
</g>
<g>
<title>java/util/concurrent/CompletableFuture.postComplete (262 samples, 0.46%)</title><rect x="435.4" y="243.0" width="5.4" height="15" fill="#56e756" rx="2" ry="2"/>
<text x="438.4" y="254.0"></text>
</g>
<g>
<title>java/util/concurrent/CompletableFuture$UniHandle.tryFire (261 samples, 0.46%)</title><rect x="435.5" y="227.0" width="5.3" height="15" fill="#5bec5b" rx="2" ry="2"/>
<text x="438.5" y="238.0"></text>
</g>
<g>
<title>java/util/concurrent/CompletableFuture.uniHandle (261 samples, 0.46%)</title><rect x="435.5" y="211.0" width="5.3" height="15" fill="#51e251" rx="2" ry="2"/>
<text x="438.5" y="222.0"></text>
</g>
<g>
<title>jdk/internal/net/http/MultiExchange$$Lambda$290/877098177.apply (261 samples, 0.46%)</title><rect x="435.5" y="195.0" width="5.3" height="15" fill="#6afb6a" rx="2" ry="2"/>
<text x="438.5" y="206.0"></text>
</g>
<g>
<title>jdk/internal/net/http/MultiExchange.lambda$responseAsyncImpl$7 (261 samples, 0.46%)</title><rect x="435.5" y="179.0" width="5.3" height="15" fill="#57e857" rx="2" ry="2"/>
<text x="438.5" y="190.0"></text>
</g>
<g>
<title>jdk/internal/net/http/MultiExchange.cancelTimer (261 samples, 0.46%)</title><rect x="435.5" y="163.0" width="5.3" height="15" fill="#66f766" rx="2" ry="2"/>
<text x="438.5" y="174.0"></text>
</g>
<g>
<title>jdk/internal/net/http/HttpClientImpl.cancelTimer (261 samples, 0.46%)</title><rect x="435.5" y="147.0" width="5.3" height="15" fill="#58e958" rx="2" ry="2"/>
<text x="438.5" y="158.0"></text>
</g>
<g>
<title>jdk.internal.net.http.HttpClientImpl (261 samples, 0.46%)</title><rect x="435.5" y="131.0" width="5.3" height="15" fill="#5dcbcb" rx="2" ry="2"/>
<text x="438.5" y="142.0"></text>
</g>
<g>
<title>jdk/internal/net/http/common/SequentialScheduler$TryEndDeferredCompleter.complete (4,790 samples, 8.36%)</title><rect x="440.8" y="483.0" width="98.6" height="15" fill="#53e453" rx="2" ry="2"/>
<text x="443.8" y="494.0">jdk/internal..</text>
</g>
<g>
<title>jdk/internal/net/http/common/SequentialScheduler$CompleteRestartableTask.run (4,790 samples, 8.36%)</title><rect x="440.8" y="467.0" width="98.6" height="15" fill="#5aeb5a" rx="2" ry="2"/>
<text x="443.8" y="478.0">jdk/internal..</text>
</g>
<g>
<title>jdk/internal/net/http/common/SequentialScheduler$SynchronizedRestartableTask.run (4,790 samples, 8.36%)</title><rect x="440.8" y="451.0" width="98.6" height="15" fill="#58e958" rx="2" ry="2"/>
<text x="443.8" y="462.0">jdk/internal..</text>
</g>
<g>
<title>jdk/internal/net/http/Http1AsyncReceiver$$Lambda$236/621309814.run (4,790 samples, 8.36%)</title><rect x="440.8" y="435.0" width="98.6" height="15" fill="#5eef5e" rx="2" ry="2"/>
<text x="443.8" y="446.0">jdk/internal..</text>
</g>
<g>
<title>jdk/internal/net/http/Http1AsyncReceiver.flush (4,790 samples, 8.36%)</title><rect x="440.8" y="419.0" width="98.6" height="15" fill="#67f867" rx="2" ry="2"/>
<text x="443.8" y="430.0">jdk/internal..</text>
</g>
<g>
<title>jdk/internal/net/http/Http1AsyncReceiver.handlePendingDelegate (4,790 samples, 8.36%)</title><rect x="440.8" y="403.0" width="98.6" height="15" fill="#58e958" rx="2" ry="2"/>
<text x="443.8" y="414.0">jdk/internal..</text>
</g>
<g>
<title>jdk/internal/net/http/Http1Response$BodyReader.onSubscribe (4,790 samples, 8.36%)</title><rect x="440.8" y="387.0" width="98.6" height="15" fill="#52e352" rx="2" ry="2"/>
<text x="443.8" y="398.0">jdk/internal..</text>
</g>
<g>
<title>jdk/internal/net/http/ResponseContent$FixedLengthBodyParser.onSubscribe (4,790 samples, 8.36%)</title><rect x="440.8" y="371.0" width="98.6" height="15" fill="#6afb6a" rx="2" ry="2"/>
<text x="443.8" y="382.0">jdk/internal..</text>
</g>
<g>
<title>jdk/internal/net/http/Http1Response$$Lambda$351/569771841.run (4,790 samples, 8.36%)</title><rect x="440.8" y="355.0" width="98.6" height="15" fill="#6dfe6d" rx="2" ry="2"/>
<text x="443.8" y="366.0">jdk/internal..</text>
</g>
<g>
<title>jdk/internal/net/http/Http1Response.onFinished (4,790 samples, 8.36%)</title><rect x="440.8" y="339.0" width="98.6" height="15" fill="#68f968" rx="2" ry="2"/>
<text x="443.8" y="350.0">jdk/internal..</text>
</g>
<g>
<title>jdk/internal/net/http/HttpConnection.closeOrReturnToCache (4,790 samples, 8.36%)</title><rect x="440.8" y="323.0" width="98.6" height="15" fill="#6bfc6b" rx="2" ry="2"/>
<text x="443.8" y="334.0">jdk/internal..</text>
</g>
<g>
<title>jdk/internal/net/http/ConnectionPool.returnToPool (4,790 samples, 8.36%)</title><rect x="440.8" y="307.0" width="98.6" height="15" fill="#69fa69" rx="2" ry="2"/>
<text x="443.8" y="318.0">jdk/internal..</text>
</g>
<g>
<title>jdk/internal/net/http/ConnectionPool.returnToPool (4,790 samples, 8.36%)</title><rect x="440.8" y="291.0" width="98.6" height="15" fill="#5aeb5a" rx="2" ry="2"/>
<text x="443.8" y="302.0">jdk/internal..</text>
</g>
<g>
<title>jdk/internal/net/http/ConnectionPool.registerCleanupTrigger (4,782 samples, 8.34%)</title><rect x="441.0" y="275.0" width="98.4" height="15" fill="#57e857" rx="2" ry="2"/>
<text x="444.0" y="286.0">jdk/internal..</text>
</g>
<g>
<title>jdk/internal/net/http/SocketTube.connectFlows (4,782 samples, 8.34%)</title><rect x="441.0" y="259.0" width="98.4" height="15" fill="#69fa69" rx="2" ry="2"/>
<text x="444.0" y="270.0">jdk/internal..</text>
</g>
<g>
<title>jdk/internal/net/http/ConnectionPool$CleanupTrigger.subscribe (1,896 samples, 3.31%)</title><rect x="441.0" y="243.0" width="39.0" height="15" fill="#67f867" rx="2" ry="2"/>
<text x="444.0" y="254.0">jdk..</text>
</g>
<g>
<title>jdk/internal/net/http/SocketTube.onSubscribe (1,896 samples, 3.31%)</title><rect x="441.0" y="227.0" width="39.0" height="15" fill="#62f362" rx="2" ry="2"/>
<text x="444.0" y="238.0">jdk..</text>
</g>
<g>
<title>jdk/internal/net/http/SocketTube$InternalWriteSubscriber.onSubscribe (1,896 samples, 3.31%)</title><rect x="441.0" y="211.0" width="39.0" height="15" fill="#64f564" rx="2" ry="2"/>
<text x="444.0" y="222.0">jdk..</text>
</g>
<g>
<title>jdk/internal/net/http/HttpClientImpl.registerEvent (1,896 samples, 3.31%)</title><rect x="441.0" y="195.0" width="39.0" height="15" fill="#50e150" rx="2" ry="2"/>
<text x="444.0" y="206.0">jdk..</text>
</g>
<g>
<title>jdk/internal/net/http/HttpClientImpl$SelectorManager.register (1,896 samples, 3.31%)</title><rect x="441.0" y="179.0" width="39.0" height="15" fill="#5eef5e" rx="2" ry="2"/>
<text x="444.0" y="190.0">jdk..</text>
</g>
<g>
<title>jdk.internal.net.http.HttpClientImpl$SelectorManager (555 samples, 0.97%)</title><rect x="441.0" y="163.0" width="11.4" height="15" fill="#55c3c3" rx="2" ry="2"/>
<text x="444.0" y="174.0"></text>
</g>
<g>
<title>sun/nio/ch/EPollSelectorImpl.wakeup (1,341 samples, 2.34%)</title><rect x="452.4" y="163.0" width="27.6" height="15" fill="#63f463" rx="2" ry="2"/>
<text x="455.4" y="174.0">s..</text>
</g>
<g>
<title>java.lang.Object (1,341 samples, 2.34%)</title><rect x="452.4" y="147.0" width="27.6" height="15" fill="#51bfbf" rx="2" ry="2"/>
<text x="455.4" y="158.0">j..</text>
</g>
<g>
<title>jdk/internal/net/http/SocketTube.subscribe (2,886 samples, 5.03%)</title><rect x="480.0" y="243.0" width="59.4" height="15" fill="#5ced5c" rx="2" ry="2"/>
<text x="483.0" y="254.0">jdk/in..</text>
</g>
<g>
<title>jdk/internal/net/http/SocketTube$InternalReadPublisher.subscribe (2,886 samples, 5.03%)</title><rect x="480.0" y="227.0" width="59.4" height="15" fill="#50e150" rx="2" ry="2"/>
<text x="483.0" y="238.0">jdk/in..</text>
</g>
<g>
<title>jdk/internal/net/http/SocketTube$InternalReadPublisher$InternalReadSubscription.signalSubscribe (2,886 samples, 5.03%)</title><rect x="480.0" y="211.0" width="59.4" height="15" fill="#53e453" rx="2" ry="2"/>
<text x="483.0" y="222.0">jdk/in..</text>
</g>
<g>
<title>jdk/internal/net/http/HttpClientImpl.registerEvent (2,886 samples, 5.03%)</title><rect x="480.0" y="195.0" width="59.4" height="15" fill="#59ea59" rx="2" ry="2"/>
<text x="483.0" y="206.0">jdk/in..</text>
</g>
<g>
<title>jdk/internal/net/http/HttpClientImpl$SelectorManager.register (2,886 samples, 5.03%)</title><rect x="480.0" y="179.0" width="59.4" height="15" fill="#58e958" rx="2" ry="2"/>
<text x="483.0" y="190.0">jdk/in..</text>
</g>
<g>
<title>jdk.internal.net.http.HttpClientImpl$SelectorManager (1,988 samples, 3.47%)</title><rect x="480.0" y="163.0" width="41.0" height="15" fill="#69d7d7" rx="2" ry="2"/>
<text x="483.0" y="174.0">jdk..</text>
</g>
<g>
<title>sun/nio/ch/EPollSelectorImpl.wakeup (898 samples, 1.57%)</title><rect x="521.0" y="163.0" width="18.4" height="15" fill="#61f261" rx="2" ry="2"/>
<text x="524.0" y="174.0"></text>
</g>
<g>
<title>java.lang.Object (898 samples, 1.57%)</title><rect x="521.0" y="147.0" width="18.4" height="15" fill="#65d3d3" rx="2" ry="2"/>
<text x="524.0" y="158.0"></text>
</g>
<g>
<title>ru/mail/polis/service/httprest/HttpRestDemon$$Lambda$113/1746272309.run (34 samples, 0.06%)</title><rect x="539.4" y="515.0" width="0.7" height="15" fill="#6dfe6d" rx="2" ry="2"/>
<text x="542.4" y="526.0"></text>
</g>
<g>
<title>ru/mail/polis/service/httprest/HttpRestDemon.lambda$asyncExecute$4 (34 samples, 0.06%)</title><rect x="539.4" y="499.0" width="0.7" height="15" fill="#6bfc6b" rx="2" ry="2"/>
<text x="542.4" y="510.0"></text>
</g>
<g>
<title>ru/mail/polis/service/httprest/HttpRestDemon$ResponseUtils.sendResponse (34 samples, 0.06%)</title><rect x="539.4" y="483.0" width="0.7" height="15" fill="#50e150" rx="2" ry="2"/>
<text x="542.4" y="494.0"></text>
</g>
<g>
<title>one/nio/http/HttpSession.sendResponse (34 samples, 0.06%)</title><rect x="539.4" y="467.0" width="0.7" height="15" fill="#5eef5e" rx="2" ry="2"/>
<text x="542.4" y="478.0"></text>
</g>
<g>
<title>ru.mail.polis.service.httprest.StorageSession (34 samples, 0.06%)</title><rect x="539.4" y="451.0" width="0.7" height="15" fill="#65d3d3" rx="2" ry="2"/>
<text x="542.4" y="462.0"></text>
</g>
<g>
<title>jdk/internal/net/http/HttpClientImpl$SelectorManager.run (31,569 samples, 55.07%)</title><rect x="540.1" y="563.0" width="649.9" height="15" fill="#58e958" rx="2" ry="2"/>
<text x="543.1" y="574.0">jdk/internal/net/http/HttpClientImpl$SelectorManager.run</text>
</g>
<g>
<title>jdk.internal.net.http.HttpClientImpl$SelectorManager (24,808 samples, 43.28%)</title><rect x="540.1" y="547.0" width="510.7" height="15" fill="#61cfcf" rx="2" ry="2"/>
<text x="543.1" y="558.0">jdk.internal.net.http.HttpClientImpl$SelectorManager</text>
</g>
<g>
<title>jdk/internal/net/http/ConnectionPool.purgeExpiredConnectionsAndReturnNextDeadline (17 samples, 0.03%)</title><rect x="1050.8" y="547.0" width="0.4" height="15" fill="#62f362" rx="2" ry="2"/>
<text x="1053.8" y="558.0"></text>
</g>
<g>
<title>jdk/internal/net/http/ConnectionPool.purgeExpiredConnectionsAndReturnNextDeadline (17 samples, 0.03%)</title><rect x="1050.8" y="531.0" width="0.4" height="15" fill="#58e958" rx="2" ry="2"/>
<text x="1053.8" y="542.0"></text>
</g>
<g>
<title>jdk.internal.net.http.ConnectionPool (17 samples, 0.03%)</title><rect x="1050.8" y="515.0" width="0.4" height="15" fill="#5bc9c9" rx="2" ry="2"/>
<text x="1053.8" y="526.0"></text>
</g>
<g>
<title>jdk/internal/net/http/HttpClientImpl.purgeTimeoutsAndReturnNextDeadline (4,833 samples, 8.43%)</title><rect x="1051.2" y="547.0" width="99.4" height="15" fill="#60f160" rx="2" ry="2"/>
<text x="1054.2" y="558.0">jdk/internal..</text>
</g>
<g>
<title>jdk.internal.net.http.HttpClientImpl (4,833 samples, 8.43%)</title><rect x="1051.2" y="531.0" width="99.4" height="15" fill="#53c1c1" rx="2" ry="2"/>
<text x="1054.2" y="542.0">jdk.internal..</text>
</g>
<g>
<title>sun/nio/ch/SelectorImpl.select (1,909 samples, 3.33%)</title><rect x="1150.6" y="547.0" width="39.3" height="15" fill="#65f665" rx="2" ry="2"/>
<text x="1153.6" y="558.0">sun..</text>
</g>
<g>
<title>sun/nio/ch/SelectorImpl.lockAndDoSelect (1,909 samples, 3.33%)</title><rect x="1150.6" y="531.0" width="39.3" height="15" fill="#67f867" rx="2" ry="2"/>
<text x="1153.6" y="542.0">sun..</text>
</g>
<g>
<title>sun/nio/ch/EPollSelectorImpl.doSelect (1,909 samples, 3.33%)</title><rect x="1150.6" y="515.0" width="39.3" height="15" fill="#6dfe6d" rx="2" ry="2"/>
<text x="1153.6" y="526.0">sun..</text>
</g>
<g>
<title>sun/nio/ch/EPollSelectorImpl.processEvents (1,909 samples, 3.33%)</title><rect x="1150.6" y="499.0" width="39.3" height="15" fill="#5ff05f" rx="2" ry="2"/>
<text x="1153.6" y="510.0">sun..</text>
</g>
<g>
<title>sun/nio/ch/EPollSelectorImpl.clearInterrupt (1,909 samples, 3.33%)</title><rect x="1150.6" y="483.0" width="39.3" height="15" fill="#5ced5c" rx="2" ry="2"/>
<text x="1153.6" y="494.0">sun..</text>
</g>
<g>
<title>java.lang.Object (1,909 samples, 3.33%)</title><rect x="1150.6" y="467.0" width="39.3" height="15" fill="#63d1d1" rx="2" ry="2"/>
<text x="1153.6" y="478.0">jav..</text>
</g>
</g>
</svg>
