<?xml version="1.0" standalone="no"?>
<!DOCTYPE svg PUBLIC "-//W3C//DTD SVG 1.1//EN" "http://www.w3.org/Graphics/SVG/1.1/DTD/svg11.dtd">
<svg version="1.1" width="1200" height="630" onload="init(evt)" viewBox="0 0 1200 630" xmlns="http://www.w3.org/2000/svg" xmlns:xlink="http://www.w3.org/1999/xlink">
<style type="text/css">
	text { font-family:Verdana; font-size:12px; fill:rgb(0,0,0); }
	#search { opacity:0.1; cursor:pointer; }
	#search:hover, #search.show { opacity:1; }
	#subtitle { text-anchor:middle; font-color:rgb(160,160,160); }
	#title { text-anchor:middle; font-size:17px}
	#unzoom { cursor:pointer; }
	#frames > *:hover { stroke:black; stroke-width:0.5; cursor:pointer; }
	.hide { display:none; }
	.parent { opacity:0.5; }
</style>
<script type="text/ecmascript">
<![CDATA[
	"use strict";
	var details, searchbtn, unzoombtn, matchedtxt, svg, searching;
	function init(evt) {
		details = document.getElementById("details").firstChild;
		searchbtn = document.getElementById("search");
		unzoombtn = document.getElementById("unzoom");
		matchedtxt = document.getElementById("matched");
		svg = document.getElementsByTagName("svg")[0];
		searching = 0;
	}

	window.addEventListener("click", function(e) {
		var target = find_group(e.target);
		if (target) {
			if (target.nodeName == "a") {
				if (e.ctrlKey === false) return;
				e.preventDefault();
			}
			if (target.classList.contains("parent")) unzoom();
			zoom(target);
		}
		else if (e.target.id == "unzoom") unzoom();
		else if (e.target.id == "search") search_prompt();
	}, false)

	// mouse-over for info
	// show
	window.addEventListener("mouseover", function(e) {
		var target = find_group(e.target);
		if (target) details.nodeValue = "Function: " + g_to_text(target);
	}, false)

	// clear
	window.addEventListener("mouseout", function(e) {
		var target = find_group(e.target);
		if (target) details.nodeValue = ' ';
	}, false)

	// ctrl-F for search
	window.addEventListener("keydown",function (e) {
		if (e.keyCode === 114 || (e.ctrlKey && e.keyCode === 70)) {
			e.preventDefault();
			search_prompt();
		}
	}, false)

	// functions
	function find_child(node, selector) {
		var children = node.querySelectorAll(selector);
		if (children.length) return children[0];
		return;
	}
	function find_group(node) {
		var parent = node.parentElement;
		if (!parent) return;
		if (parent.id == "frames") return node;
		return find_group(parent);
	}
	function orig_save(e, attr, val) {
		if (e.attributes["_orig_" + attr] != undefined) return;
		if (e.attributes[attr] == undefined) return;
		if (val == undefined) val = e.attributes[attr].value;
		e.setAttribute("_orig_" + attr, val);
	}
	function orig_load(e, attr) {
		if (e.attributes["_orig_"+attr] == undefined) return;
		e.attributes[attr].value = e.attributes["_orig_" + attr].value;
		e.removeAttribute("_orig_"+attr);
	}
	function g_to_text(e) {
		var text = find_child(e, "title").firstChild.nodeValue;
		return (text)
	}
	function g_to_func(e) {
		var func = g_to_text(e);
		// if there's any manipulation we want to do to the function
		// name before it's searched, do it here before returning.
		return (func);
	}
	function update_text(e) {
		var r = find_child(e, "rect");
		var t = find_child(e, "text");
		var w = parseFloat(r.attributes.width.value) -3;
		var txt = find_child(e, "title").textContent.replace(/\([^(]*\)$/,"");
		t.attributes.x.value = parseFloat(r.attributes.x.value) + 3;

		// Smaller than this size won't fit anything
		if (w < 2 * 12 * 0.59) {
			t.textContent = "";
			return;
		}

		t.textContent = txt;
		// Fit in full text width
		if (/^ *$/.test(txt) || t.getSubStringLength(0, txt.length) < w)
			return;

		for (var x = txt.length - 2; x > 0; x--) {
			if (t.getSubStringLength(0, x + 2) <= w) {
				t.textContent = txt.substring(0, x) + "..";
				return;
			}
		}
		t.textContent = "";
	}

	// zoom
	function zoom_reset(e) {
		if (e.attributes != undefined) {
			orig_load(e, "x");
			orig_load(e, "width");
		}
		if (e.childNodes == undefined) return;
		for (var i = 0, c = e.childNodes; i < c.length; i++) {
			zoom_reset(c[i]);
		}
	}
	function zoom_child(e, x, ratio) {
		if (e.attributes != undefined) {
			if (e.attributes.x != undefined) {
				orig_save(e, "x");
				e.attributes.x.value = (parseFloat(e.attributes.x.value) - x - 10) * ratio + 10;
				if (e.tagName == "text")
					e.attributes.x.value = find_child(e.parentNode, "rect[x]").attributes.x.value + 3;
			}
			if (e.attributes.width != undefined) {
				orig_save(e, "width");
				e.attributes.width.value = parseFloat(e.attributes.width.value) * ratio;
			}
		}

		if (e.childNodes == undefined) return;
		for (var i = 0, c = e.childNodes; i < c.length; i++) {
			zoom_child(c[i], x - 10, ratio);
		}
	}
	function zoom_parent(e) {
		if (e.attributes) {
			if (e.attributes.x != undefined) {
				orig_save(e, "x");
				e.attributes.x.value = 10;
			}
			if (e.attributes.width != undefined) {
				orig_save(e, "width");
				e.attributes.width.value = parseInt(svg.width.baseVal.value) - (10 * 2);
			}
		}
		if (e.childNodes == undefined) return;
		for (var i = 0, c = e.childNodes; i < c.length; i++) {
			zoom_parent(c[i]);
		}
	}
	function zoom(node) {
		var attr = find_child(node, "rect").attributes;
		var width = parseFloat(attr.width.value);
		var xmin = parseFloat(attr.x.value);
		var xmax = parseFloat(xmin + width);
		var ymin = parseFloat(attr.y.value);
		var ratio = (svg.width.baseVal.value - 2 * 10) / width;

		// XXX: Workaround for JavaScript float issues (fix me)
		var fudge = 0.0001;

		unzoombtn.classList.remove("hide");

		var el = document.getElementById("frames").children;
		for (var i = 0; i < el.length; i++) {
			var e = el[i];
			var a = find_child(e, "rect").attributes;
			var ex = parseFloat(a.x.value);
			var ew = parseFloat(a.width.value);
			var upstack;
			// Is it an ancestor
			if (0 == 0) {
				upstack = parseFloat(a.y.value) > ymin;
			} else {
				upstack = parseFloat(a.y.value) < ymin;
			}
			if (upstack) {
				// Direct ancestor
				if (ex <= xmin && (ex+ew+fudge) >= xmax) {
					e.classList.add("parent");
					zoom_parent(e);
					update_text(e);
				}
				// not in current path
				else
					e.classList.add("hide");
			}
			// Children maybe
			else {
				// no common path
				if (ex < xmin || ex + fudge >= xmax) {
					e.classList.add("hide");
				}
				else {
					zoom_child(e, xmin, ratio);
					update_text(e);
				}
			}
		}
	}
	function unzoom() {
		unzoombtn.classList.add("hide");
		var el = document.getElementById("frames").children;
		for(var i = 0; i < el.length; i++) {
			el[i].classList.remove("parent");
			el[i].classList.remove("hide");
			zoom_reset(el[i]);
			update_text(el[i]);
		}
	}

	// search
	function reset_search() {
		var el = document.querySelectorAll("#frames rect");
		for (var i = 0; i < el.length; i++) {
			orig_load(el[i], "fill")
		}
	}
	function search_prompt() {
		if (!searching) {
			var term = prompt("Enter a search term (regexp " +
			    "allowed, eg: ^ext4_)", "");
			if (term != null) {
				search(term)
			}
		} else {
			reset_search();
			searching = 0;
			searchbtn.classList.remove("show");
			searchbtn.firstChild.nodeValue = "Search"
			matchedtxt.classList.add("hide");
			matchedtxt.firstChild.nodeValue = ""
		}
	}
	function search(term) {
		var re = new RegExp(term);
		var el = document.getElementById("frames").children;
		var matches = new Object();
		var maxwidth = 0;
		for (var i = 0; i < el.length; i++) {
			var e = el[i];
			var func = g_to_func(e);
			var rect = find_child(e, "rect");
			if (func == null || rect == null)
				continue;

			// Save max width. Only works as we have a root frame
			var w = parseFloat(rect.attributes.width.value);
			if (w > maxwidth)
				maxwidth = w;

			if (func.match(re)) {
				// highlight
				var x = parseFloat(rect.attributes.x.value);
				orig_save(rect, "fill");
				rect.attributes.fill.value = "rgb(230,0,230)";

				// remember matches
				if (matches[x] == undefined) {
					matches[x] = w;
				} else {
					if (w > matches[x]) {
						// overwrite with parent
						matches[x] = w;
					}
				}
				searching = 1;
			}
		}
		if (!searching)
			return;

		searchbtn.classList.add("show");
		searchbtn.firstChild.nodeValue = "Reset Search";

		// calculate percent matched, excluding vertical overlap
		var count = 0;
		var lastx = -1;
		var lastw = 0;
		var keys = Array();
		for (k in matches) {
			if (matches.hasOwnProperty(k))
				keys.push(k);
		}
		// sort the matched frames by their x location
		// ascending, then width descending
		keys.sort(function(a, b){
			return a - b;
		});
		// Step through frames saving only the biggest bottom-up frames
		// thanks to the sort order. This relies on the tree property
		// where children are always smaller than their parents.
		var fudge = 0.0001;	// JavaScript floating point
		for (var k in keys) {
			var x = parseFloat(keys[k]);
			var w = matches[keys[k]];
			if (x >= lastx + lastw - fudge) {
				count += w;
				lastx = x;
				lastw = w;
			}
		}
		// display matched percent
		matchedtxt.classList.remove("hide");
		var pct = 100 * count / maxwidth;
		if (pct != 100) pct = pct.toFixed(1)
		matchedtxt.firstChild.nodeValue = "Matched: " + pct + "%";
	}
]]>
</script>
<rect x="0" y="0" width="100%" height="100%" fill="rgb(240,240,220)"/>
<text id="title" x="600" y="24">Flame Graph</text>
<text id="details" x="10" y="613"> </text>
<text id="unzoom" x="10" y="24" class="hide">Reset Zoom</text>
<text id="search" x="1090" y="24">Search</text>
<text id="matched" x="1090" y="613"> </text>
<g id="frames">
<g>
<title>all (59,175 samples, 100.00%)</title><rect x="10.0" y="579.0" width="1180.0" height="15" fill="#ee6b6b" rx="2" ry="2"/>
<text x="13.0" y="590.0">all</text>
</g>
<g>
<title>java/lang/Thread.run (26,550 samples, 44.87%)</title><rect x="10.0" y="563.0" width="529.5" height="15" fill="#63f463" rx="2" ry="2"/>
<text x="13.0" y="574.0">java/lang/Thread.run</text>
</g>
<g>
<title>java/util/concurrent/ThreadPoolExecutor$Worker.run (26,550 samples, 44.87%)</title><rect x="10.0" y="547.0" width="529.5" height="15" fill="#69fa69" rx="2" ry="2"/>
<text x="13.0" y="558.0">java/util/concurrent/ThreadPoolExecutor$Worker.run</text>
</g>
<g>
<title>java/util/concurrent/ThreadPoolExecutor.runWorker (26,550 samples, 44.87%)</title><rect x="10.0" y="531.0" width="529.5" height="15" fill="#58e958" rx="2" ry="2"/>
<text x="13.0" y="542.0">java/util/concurrent/ThreadPoolExecutor.runWorker</text>
</g>
<g>
<title>java/util/concurrent/CompletableFuture$AsyncSupply.run (16,220 samples, 27.41%)</title><rect x="10.0" y="515.0" width="323.5" height="15" fill="#69fa69" rx="2" ry="2"/>
<text x="13.0" y="526.0">java/util/concurrent/CompletableFuture$Async..</text>
</g>
<g>
<title>java/util/concurrent/CompletableFuture.postComplete (16,220 samples, 27.41%)</title><rect x="10.0" y="499.0" width="323.5" height="15" fill="#51e251" rx="2" ry="2"/>
<text x="13.0" y="510.0">java/util/concurrent/CompletableFuture.postC..</text>
</g>
<g>
<title>java/util/concurrent/CompletableFuture$UniCompose.tryFire (16,220 samples, 27.41%)</title><rect x="10.0" y="483.0" width="323.5" height="15" fill="#61f261" rx="2" ry="2"/>
<text x="13.0" y="494.0">java/util/concurrent/CompletableFuture$UniCo..</text>
</g>
<g>
<title>jdk/internal/net/http/MultiExchange$$Lambda$153/1249503175.apply (16,220 samples, 27.41%)</title><rect x="10.0" y="467.0" width="323.5" height="15" fill="#52e352" rx="2" ry="2"/>
<text x="13.0" y="478.0">jdk/internal/net/http/MultiExchange$$Lambda$..</text>
</g>
<g>
<title>jdk/internal/net/http/MultiExchange.lambda$responseAsync0$2 (16,220 samples, 27.41%)</title><rect x="10.0" y="451.0" width="323.5" height="15" fill="#62f362" rx="2" ry="2"/>
<text x="13.0" y="462.0">jdk/internal/net/http/MultiExchange.lambda$r..</text>
</g>
<g>
<title>jdk/internal/net/http/MultiExchange.responseAsyncImpl (16,220 samples, 27.41%)</title><rect x="10.0" y="435.0" width="323.5" height="15" fill="#5ced5c" rx="2" ry="2"/>
<text x="13.0" y="446.0">jdk/internal/net/http/MultiExchange.response..</text>
</g>
<g>
<title>jdk/internal/net/http/Exchange.responseAsync (11,458 samples, 19.36%)</title><rect x="10.0" y="419.0" width="228.5" height="15" fill="#62f362" rx="2" ry="2"/>
<text x="13.0" y="430.0">jdk/internal/net/http/Exchange..</text>
</g>
<g>
<title>jdk/internal/net/http/Exchange.responseAsyncImpl (11,458 samples, 19.36%)</title><rect x="10.0" y="403.0" width="228.5" height="15" fill="#62f362" rx="2" ry="2"/>
<text x="13.0" y="414.0">jdk/internal/net/http/Exchange..</text>
</g>
<g>
<title>jdk/internal/net/http/Exchange.responseAsyncImpl0 (11,458 samples, 19.36%)</title><rect x="10.0" y="387.0" width="228.5" height="15" fill="#50e150" rx="2" ry="2"/>
<text x="13.0" y="398.0">jdk/internal/net/http/Exchange..</text>
</g>
<g>
<title>java/util/concurrent/CompletableFuture.handle (11,452 samples, 19.35%)</title><rect x="10.0" y="371.0" width="228.4" height="15" fill="#50e150" rx="2" ry="2"/>
<text x="13.0" y="382.0">java/util/concurrent/Completab..</text>
</g>
<g>
<title>java/util/concurrent/CompletableFuture.uniHandleStage (11,452 samples, 19.35%)</title><rect x="10.0" y="355.0" width="228.4" height="15" fill="#62f362" rx="2" ry="2"/>
<text x="13.0" y="366.0">java/util/concurrent/Completab..</text>
</g>
<g>
<title>java/util/concurrent/CompletableFuture.uniHandle (11,452 samples, 19.35%)</title><rect x="10.0" y="339.0" width="228.4" height="15" fill="#61f261" rx="2" ry="2"/>
<text x="13.0" y="350.0">java/util/concurrent/Completab..</text>
</g>
<g>
<title>jdk/internal/net/http/Exchange$$Lambda$245/351709695.apply (11,452 samples, 19.35%)</title><rect x="10.0" y="323.0" width="228.4" height="15" fill="#58e958" rx="2" ry="2"/>
<text x="13.0" y="334.0">jdk/internal/net/http/Exchange..</text>
</g>
<g>
<title>jdk/internal/net/http/Exchange.lambda$responseAsyncImpl0$9 (11,452 samples, 19.35%)</title><rect x="10.0" y="307.0" width="228.4" height="15" fill="#53e453" rx="2" ry="2"/>
<text x="13.0" y="318.0">jdk/internal/net/http/Exchange..</text>
</g>
<g>
<title>jdk/internal/net/http/Exchange.checkFor407 (11,452 samples, 19.35%)</title><rect x="10.0" y="291.0" width="228.4" height="15" fill="#5eef5e" rx="2" ry="2"/>
<text x="13.0" y="302.0">jdk/internal/net/http/Exchange..</text>
</g>
<g>
<title>jdk/internal/net/http/Exchange$$Lambda$170/678742413.apply (11,452 samples, 19.35%)</title><rect x="10.0" y="275.0" width="228.4" height="15" fill="#6afb6a" rx="2" ry="2"/>
<text x="13.0" y="286.0">jdk/internal/net/http/Exchange..</text>
</g>
<g>
<title>jdk/internal/net/http/Exchange.lambda$responseAsyncImpl0$8 (11,452 samples, 19.35%)</title><rect x="10.0" y="259.0" width="228.4" height="15" fill="#55e655" rx="2" ry="2"/>
<text x="13.0" y="270.0">jdk/internal/net/http/Exchange..</text>
</g>
<g>
<title>jdk/internal/net/http/Http1Exchange.sendHeadersAsync (11,452 samples, 19.35%)</title><rect x="10.0" y="243.0" width="228.4" height="15" fill="#69fa69" rx="2" ry="2"/>
<text x="13.0" y="254.0">jdk/internal/net/http/Http1Exc..</text>
</g>
<g>
<title>java/util/concurrent/CompletableFuture.thenCompose (11,452 samples, 19.35%)</title><rect x="10.0" y="227.0" width="228.4" height="15" fill="#58e958" rx="2" ry="2"/>
<text x="13.0" y="238.0">java/util/concurrent/Completab..</text>
</g>
<g>
<title>java/util/concurrent/CompletableFuture.uniComposeStage (11,452 samples, 19.35%)</title><rect x="10.0" y="211.0" width="228.4" height="15" fill="#5aeb5a" rx="2" ry="2"/>
<text x="13.0" y="222.0">java/util/concurrent/Completab..</text>
</g>
<g>
<title>jdk/internal/net/http/Http1Exchange$$Lambda$281/1002612192.apply (11,452 samples, 19.35%)</title><rect x="10.0" y="195.0" width="228.4" height="15" fill="#68f968" rx="2" ry="2"/>
<text x="13.0" y="206.0">jdk/internal/net/http/Http1Exc..</text>
</g>
<g>
<title>jdk/internal/net/http/Http1Exchange.lambda$sendHeadersAsync$4 (11,452 samples, 19.35%)</title><rect x="10.0" y="179.0" width="228.4" height="15" fill="#66f766" rx="2" ry="2"/>
<text x="13.0" y="190.0">jdk/internal/net/http/Http1Exc..</text>
</g>
<g>
<title>jdk/internal/net/http/Http1Exchange.connectFlows (11,452 samples, 19.35%)</title><rect x="10.0" y="163.0" width="228.4" height="15" fill="#51e251" rx="2" ry="2"/>
<text x="13.0" y="174.0">jdk/internal/net/http/Http1Exc..</text>
</g>
<g>
<title>jdk/internal/net/http/SocketTube.connectFlows (11,452 samples, 19.35%)</title><rect x="10.0" y="147.0" width="228.4" height="15" fill="#5ff05f" rx="2" ry="2"/>
<text x="13.0" y="158.0">jdk/internal/net/http/SocketTu..</text>
</g>
<g>
<title>jdk/internal/net/http/Http1Exchange$Http1Publisher.subscribe (3,690 samples, 6.24%)</title><rect x="10.0" y="131.0" width="73.6" height="15" fill="#63f463" rx="2" ry="2"/>
<text x="13.0" y="142.0">jdk/inte..</text>
</g>
<g>
<title>jdk/internal/net/http/SocketTube.onSubscribe (3,690 samples, 6.24%)</title><rect x="10.0" y="115.0" width="73.6" height="15" fill="#52e352" rx="2" ry="2"/>
<text x="13.0" y="126.0">jdk/inte..</text>
</g>
<g>
<title>jdk/internal/net/http/SocketTube$InternalWriteSubscriber.onSubscribe (3,690 samples, 6.24%)</title><rect x="10.0" y="99.0" width="73.6" height="15" fill="#5aeb5a" rx="2" ry="2"/>
<text x="13.0" y="110.0">jdk/inte..</text>
</g>
<g>
<title>jdk/internal/net/http/HttpClientImpl.registerEvent (3,690 samples, 6.24%)</title><rect x="10.0" y="83.0" width="73.6" height="15" fill="#52e352" rx="2" ry="2"/>
<text x="13.0" y="94.0">jdk/inte..</text>
</g>
<g>
<title>jdk/internal/net/http/HttpClientImpl$SelectorManager.register (3,690 samples, 6.24%)</title><rect x="10.0" y="67.0" width="73.6" height="15" fill="#65f665" rx="2" ry="2"/>
<text x="13.0" y="78.0">jdk/inte..</text>
</g>
<g>
<title>jdk.internal.net.http.HttpClientImpl$SelectorManager (554 samples, 0.94%)</title><rect x="10.0" y="51.0" width="11.1" height="15" fill="#55c3c3" rx="2" ry="2"/>
<text x="13.0" y="62.0"></text>
</g>
<g>
<title>sun/nio/ch/EPollSelectorImpl.wakeup (3,136 samples, 5.30%)</title><rect x="21.1" y="51.0" width="62.5" height="15" fill="#5aeb5a" rx="2" ry="2"/>
<text x="24.1" y="62.0">sun/ni..</text>
</g>
<g>
<title>java.lang.Object (3,136 samples, 5.30%)</title><rect x="21.1" y="35.0" width="62.5" height="15" fill="#61cfcf" rx="2" ry="2"/>
<text x="24.1" y="46.0">java.l..</text>
</g>
<g>
<title>jdk/internal/net/http/SocketTube.subscribe (7,762 samples, 13.12%)</title><rect x="83.6" y="131.0" width="154.8" height="15" fill="#56e756" rx="2" ry="2"/>
<text x="86.6" y="142.0">jdk/internal/net/htt..</text>
</g>
<g>
<title>jdk/internal/net/http/SocketTube$InternalReadPublisher.subscribe (7,762 samples, 13.12%)</title><rect x="83.6" y="115.0" width="154.8" height="15" fill="#6cfd6c" rx="2" ry="2"/>
<text x="86.6" y="126.0">jdk/internal/net/htt..</text>
</g>
<g>
<title>jdk/internal/net/http/SocketTube$InternalReadPublisher$InternalReadSubscription.signalSubscribe (7,762 samples, 13.12%)</title><rect x="83.6" y="99.0" width="154.8" height="15" fill="#63f463" rx="2" ry="2"/>
<text x="86.6" y="110.0">jdk/internal/net/htt..</text>
</g>
<g>
<title>jdk/internal/net/http/HttpClientImpl.registerEvent (7,762 samples, 13.12%)</title><rect x="83.6" y="83.0" width="154.8" height="15" fill="#69fa69" rx="2" ry="2"/>
<text x="86.6" y="94.0">jdk/internal/net/htt..</text>
</g>
<g>
<title>jdk/internal/net/http/HttpClientImpl$SelectorManager.register (7,762 samples, 13.12%)</title><rect x="83.6" y="67.0" width="154.8" height="15" fill="#5aeb5a" rx="2" ry="2"/>
<text x="86.6" y="78.0">jdk/internal/net/htt..</text>
</g>
<g>
<title>jdk.internal.net.http.HttpClientImpl$SelectorManager (3,936 samples, 6.65%)</title><rect x="83.6" y="51.0" width="78.5" height="15" fill="#58c6c6" rx="2" ry="2"/>
<text x="86.6" y="62.0">jdk.inter..</text>
</g>
<g>
<title>sun/nio/ch/EPollSelectorImpl.wakeup (3,826 samples, 6.47%)</title><rect x="162.1" y="51.0" width="76.3" height="15" fill="#5dee5d" rx="2" ry="2"/>
<text x="165.1" y="62.0">sun/nio/..</text>
</g>
<g>
<title>java.lang.Object (3,826 samples, 6.47%)</title><rect x="162.1" y="35.0" width="76.3" height="15" fill="#5bc9c9" rx="2" ry="2"/>
<text x="165.1" y="46.0">java.lan..</text>
</g>
<g>
<title>jdk/internal/net/http/HttpClientImpl.registerTimer (4,762 samples, 8.05%)</title><rect x="238.5" y="419.0" width="95.0" height="15" fill="#58e958" rx="2" ry="2"/>
<text x="241.5" y="430.0">jdk/interna..</text>
</g>
<g>
<title>jdk.internal.net.http.HttpClientImpl (1,831 samples, 3.09%)</title><rect x="238.5" y="403.0" width="36.5" height="15" fill="#52c0c0" rx="2" ry="2"/>
<text x="241.5" y="414.0">jdk..</text>
</g>
<g>
<title>jdk/internal/net/http/HttpClientImpl$SelectorManager.wakeupSelector (2,931 samples, 4.95%)</title><rect x="275.0" y="403.0" width="58.5" height="15" fill="#6dfe6d" rx="2" ry="2"/>
<text x="278.0" y="414.0">jdk/in..</text>
</g>
<g>
<title>sun/nio/ch/EPollSelectorImpl.wakeup (2,931 samples, 4.95%)</title><rect x="275.0" y="387.0" width="58.5" height="15" fill="#61f261" rx="2" ry="2"/>
<text x="278.0" y="398.0">sun/ni..</text>
</g>
<g>
<title>java.lang.Object (2,931 samples, 4.95%)</title><rect x="275.0" y="371.0" width="58.5" height="15" fill="#55c3c3" rx="2" ry="2"/>
<text x="278.0" y="382.0">java.l..</text>
</g>
<g>
<title>jdk/internal/net/http/common/SequentialScheduler$SchedulableTask.run (10,313 samples, 17.43%)</title><rect x="333.5" y="515.0" width="205.6" height="15" fill="#5dee5d" rx="2" ry="2"/>
<text x="336.5" y="526.0">jdk/internal/net/http/commo..</text>
</g>
<g>
<title>jdk/internal/net/http/common/SequentialScheduler$CompleteRestartableTask.run (10,313 samples, 17.43%)</title><rect x="333.5" y="499.0" width="205.6" height="15" fill="#5eef5e" rx="2" ry="2"/>
<text x="336.5" y="510.0">jdk/internal/net/http/commo..</text>
</g>
<g>
<title>jdk/internal/net/http/common/SequentialScheduler$SynchronizedRestartableTask.run (4,571 samples, 7.72%)</title><rect x="333.5" y="483.0" width="91.1" height="15" fill="#5aeb5a" rx="2" ry="2"/>
<text x="336.5" y="494.0">jdk/interna..</text>
</g>
<g>
<title>jdk/internal/net/http/Http1AsyncReceiver$$Lambda$236/621309814.run (4,571 samples, 7.72%)</title><rect x="333.5" y="467.0" width="91.1" height="15" fill="#59ea59" rx="2" ry="2"/>
<text x="336.5" y="478.0">jdk/interna..</text>
</g>
<g>
<title>jdk/internal/net/http/Http1AsyncReceiver.flush (4,571 samples, 7.72%)</title><rect x="333.5" y="451.0" width="91.1" height="15" fill="#67f867" rx="2" ry="2"/>
<text x="336.5" y="462.0">jdk/interna..</text>
</g>
<g>
<title>jdk/internal/net/http/Http1AsyncReceiver.checkRequestMore (4,310 samples, 7.28%)</title><rect x="333.5" y="435.0" width="85.9" height="15" fill="#64f564" rx="2" ry="2"/>
<text x="336.5" y="446.0">jdk/intern..</text>
</g>
<g>
<title>jdk/internal/net/http/Http1AsyncReceiver$Http1TubeSubscriber.requestMore (4,310 samples, 7.28%)</title><rect x="333.5" y="419.0" width="85.9" height="15" fill="#53e453" rx="2" ry="2"/>
<text x="336.5" y="430.0">jdk/intern..</text>
</g>
<g>
<title>jdk/internal/net/http/SocketTube$InternalReadPublisher$ReadSubscription.request (4,310 samples, 7.28%)</title><rect x="333.5" y="403.0" width="85.9" height="15" fill="#5ff05f" rx="2" ry="2"/>
<text x="336.5" y="414.0">jdk/intern..</text>
</g>
<g>
<title>jdk/internal/net/http/SocketTube$InternalReadPublisher$InternalReadSubscription.request (4,310 samples, 7.28%)</title><rect x="333.5" y="387.0" width="85.9" height="15" fill="#66f766" rx="2" ry="2"/>
<text x="336.5" y="398.0">jdk/intern..</text>
</g>
<g>
<title>jdk/internal/net/http/SocketTube$InternalReadPublisher$InternalReadSubscription.resumeReadEvent (4,310 samples, 7.28%)</title><rect x="333.5" y="371.0" width="85.9" height="15" fill="#63f463" rx="2" ry="2"/>
<text x="336.5" y="382.0">jdk/intern..</text>
</g>
<g>
<title>jdk/internal/net/http/SocketTube.resumeEvent (4,310 samples, 7.28%)</title><rect x="333.5" y="355.0" width="85.9" height="15" fill="#55e655" rx="2" ry="2"/>
<text x="336.5" y="366.0">jdk/intern..</text>
</g>
<g>
<title>jdk/internal/net/http/HttpClientImpl.eventUpdated (4,310 samples, 7.28%)</title><rect x="333.5" y="339.0" width="85.9" height="15" fill="#68f968" rx="2" ry="2"/>
<text x="336.5" y="350.0">jdk/intern..</text>
</g>
<g>
<title>jdk/internal/net/http/HttpClientImpl$SelectorManager.eventUpdated (4,310 samples, 7.28%)</title><rect x="333.5" y="323.0" width="85.9" height="15" fill="#6dfe6d" rx="2" ry="2"/>
<text x="336.5" y="334.0">jdk/intern..</text>
</g>
<g>
<title>jdk/internal/net/http/HttpClientImpl$SelectorManager.register (4,310 samples, 7.28%)</title><rect x="333.5" y="307.0" width="85.9" height="15" fill="#58e958" rx="2" ry="2"/>
<text x="336.5" y="318.0">jdk/intern..</text>
</g>
<g>
<title>jdk.internal.net.http.HttpClientImpl$SelectorManager (2,718 samples, 4.59%)</title><rect x="333.5" y="291.0" width="54.2" height="15" fill="#60cece" rx="2" ry="2"/>
<text x="336.5" y="302.0">jdk.i..</text>
</g>
<g>
<title>sun/nio/ch/EPollSelectorImpl.wakeup (1,592 samples, 2.69%)</title><rect x="387.7" y="291.0" width="31.7" height="15" fill="#54e554" rx="2" ry="2"/>
<text x="390.7" y="302.0">su..</text>
</g>
<g>
<title>java.lang.Object (1,592 samples, 2.69%)</title><rect x="387.7" y="275.0" width="31.7" height="15" fill="#63d1d1" rx="2" ry="2"/>
<text x="390.7" y="286.0">ja..</text>
</g>
<g>
<title>jdk/internal/net/http/Http1Response$HeadersReader.tryAsyncReceive (261 samples, 0.44%)</title><rect x="419.4" y="435.0" width="5.2" height="15" fill="#54e554" rx="2" ry="2"/>
<text x="422.4" y="446.0"></text>
</g>
<g>
<title>jdk/internal/net/http/Http1Response$Receiver.accept (261 samples, 0.44%)</title><rect x="419.4" y="419.0" width="5.2" height="15" fill="#5bec5b" rx="2" ry="2"/>
<text x="422.4" y="430.0"></text>
</g>
<g>
<title>jdk/internal/net/http/Http1Response$HeadersReader.handle (261 samples, 0.44%)</title><rect x="419.4" y="403.0" width="5.2" height="15" fill="#61f261" rx="2" ry="2"/>
<text x="422.4" y="414.0"></text>
</g>
<g>
<title>jdk/internal/net/http/Http1Response$HeadersReader.handle (261 samples, 0.44%)</title><rect x="419.4" y="387.0" width="5.2" height="15" fill="#67f867" rx="2" ry="2"/>
<text x="422.4" y="398.0"></text>
</g>
<g>
<title>java/util/concurrent/CompletableFuture.complete (261 samples, 0.44%)</title><rect x="419.4" y="371.0" width="5.2" height="15" fill="#56e756" rx="2" ry="2"/>
<text x="422.4" y="382.0"></text>
</g>
<g>
<title>java/util/concurrent/CompletableFuture.postComplete (261 samples, 0.44%)</title><rect x="419.4" y="355.0" width="5.2" height="15" fill="#6cfd6c" rx="2" ry="2"/>
<text x="422.4" y="366.0"></text>
</g>
<g>
<title>java/util/concurrent/CompletableFuture$UniApply.tryFire (261 samples, 0.44%)</title><rect x="419.4" y="339.0" width="5.2" height="15" fill="#51e251" rx="2" ry="2"/>
<text x="422.4" y="350.0"></text>
</g>
<g>
<title>java/util/concurrent/CompletableFuture$UniCompletion.claim (261 samples, 0.44%)</title><rect x="419.4" y="323.0" width="5.2" height="15" fill="#64f564" rx="2" ry="2"/>
<text x="422.4" y="334.0"></text>
</g>
<g>
<title>jdk/internal/net/http/HttpClientImpl$DelegatingExecutor.execute (261 samples, 0.44%)</title><rect x="419.4" y="307.0" width="5.2" height="15" fill="#59ea59" rx="2" ry="2"/>
<text x="422.4" y="318.0"></text>
</g>
<g>
<title>java/util/concurrent/CompletableFuture$Completion.run (261 samples, 0.44%)</title><rect x="419.4" y="291.0" width="5.2" height="15" fill="#59ea59" rx="2" ry="2"/>
<text x="422.4" y="302.0"></text>
</g>
<g>
<title>java/util/concurrent/CompletableFuture$UniApply.tryFire (261 samples, 0.44%)</title><rect x="419.4" y="275.0" width="5.2" height="15" fill="#66f766" rx="2" ry="2"/>
<text x="422.4" y="286.0"></text>
</g>
<g>
<title>java/util/concurrent/CompletableFuture.postFire (261 samples, 0.44%)</title><rect x="419.4" y="259.0" width="5.2" height="15" fill="#58e958" rx="2" ry="2"/>
<text x="422.4" y="270.0"></text>
</g>
<g>
<title>java/util/concurrent/CompletableFuture.postComplete (261 samples, 0.44%)</title><rect x="419.4" y="243.0" width="5.2" height="15" fill="#6bfc6b" rx="2" ry="2"/>
<text x="422.4" y="254.0"></text>
</g>
<g>
<title>java/util/concurrent/CompletableFuture$UniHandle.tryFire (260 samples, 0.44%)</title><rect x="419.4" y="227.0" width="5.2" height="15" fill="#6bfc6b" rx="2" ry="2"/>
<text x="422.4" y="238.0"></text>
</g>
<g>
<title>java/util/concurrent/CompletableFuture.uniHandle (260 samples, 0.44%)</title><rect x="419.4" y="211.0" width="5.2" height="15" fill="#65f665" rx="2" ry="2"/>
<text x="422.4" y="222.0"></text>
</g>
<g>
<title>jdk/internal/net/http/MultiExchange$$Lambda$290/877098177.apply (260 samples, 0.44%)</title><rect x="419.4" y="195.0" width="5.2" height="15" fill="#5bec5b" rx="2" ry="2"/>
<text x="422.4" y="206.0"></text>
</g>
<g>
<title>jdk/internal/net/http/MultiExchange.lambda$responseAsyncImpl$7 (260 samples, 0.44%)</title><rect x="419.4" y="179.0" width="5.2" height="15" fill="#58e958" rx="2" ry="2"/>
<text x="422.4" y="190.0"></text>
</g>
<g>
<title>jdk/internal/net/http/MultiExchange.cancelTimer (260 samples, 0.44%)</title><rect x="419.4" y="163.0" width="5.2" height="15" fill="#50e150" rx="2" ry="2"/>
<text x="422.4" y="174.0"></text>
</g>
<g>
<title>jdk/internal/net/http/HttpClientImpl.cancelTimer (260 samples, 0.44%)</title><rect x="419.4" y="147.0" width="5.2" height="15" fill="#54e554" rx="2" ry="2"/>
<text x="422.4" y="158.0"></text>
</g>
<g>
<title>jdk.internal.net.http.HttpClientImpl (260 samples, 0.44%)</title><rect x="419.4" y="131.0" width="5.2" height="15" fill="#6cdada" rx="2" ry="2"/>
<text x="422.4" y="142.0"></text>
</g>
<g>
<title>jdk/internal/net/http/common/SequentialScheduler$TryEndDeferredCompleter.complete (5,742 samples, 9.70%)</title><rect x="424.6" y="483.0" width="114.5" height="15" fill="#54e554" rx="2" ry="2"/>
<text x="427.6" y="494.0">jdk/internal/n..</text>
</g>
<g>
<title>jdk/internal/net/http/common/SequentialScheduler$CompleteRestartableTask.run (5,742 samples, 9.70%)</title><rect x="424.6" y="467.0" width="114.5" height="15" fill="#64f564" rx="2" ry="2"/>
<text x="427.6" y="478.0">jdk/internal/n..</text>
</g>
<g>
<title>jdk/internal/net/http/common/SequentialScheduler$SynchronizedRestartableTask.run (5,742 samples, 9.70%)</title><rect x="424.6" y="451.0" width="114.5" height="15" fill="#65f665" rx="2" ry="2"/>
<text x="427.6" y="462.0">jdk/internal/n..</text>
</g>
<g>
<title>jdk/internal/net/http/Http1AsyncReceiver$$Lambda$236/621309814.run (5,742 samples, 9.70%)</title><rect x="424.6" y="435.0" width="114.5" height="15" fill="#68f968" rx="2" ry="2"/>
<text x="427.6" y="446.0">jdk/internal/n..</text>
</g>
<g>
<title>jdk/internal/net/http/Http1AsyncReceiver.flush (5,742 samples, 9.70%)</title><rect x="424.6" y="419.0" width="114.5" height="15" fill="#69fa69" rx="2" ry="2"/>
<text x="427.6" y="430.0">jdk/internal/n..</text>
</g>
<g>
<title>jdk/internal/net/http/Http1AsyncReceiver.handlePendingDelegate (5,742 samples, 9.70%)</title><rect x="424.6" y="403.0" width="114.5" height="15" fill="#60f160" rx="2" ry="2"/>
<text x="427.6" y="414.0">jdk/internal/n..</text>
</g>
<g>
<title>jdk/internal/net/http/Http1Response$BodyReader.onSubscribe (5,742 samples, 9.70%)</title><rect x="424.6" y="387.0" width="114.5" height="15" fill="#67f867" rx="2" ry="2"/>
<text x="427.6" y="398.0">jdk/internal/n..</text>
</g>
<g>
<title>jdk/internal/net/http/ResponseContent$FixedLengthBodyParser.onSubscribe (5,742 samples, 9.70%)</title><rect x="424.6" y="371.0" width="114.5" height="15" fill="#53e453" rx="2" ry="2"/>
<text x="427.6" y="382.0">jdk/internal/n..</text>
</g>
<g>
<title>jdk/internal/net/http/Http1Response$$Lambda$351/569771841.run (5,742 samples, 9.70%)</title><rect x="424.6" y="355.0" width="114.5" height="15" fill="#53e453" rx="2" ry="2"/>
<text x="427.6" y="366.0">jdk/internal/n..</text>
</g>
<g>
<title>jdk/internal/net/http/Http1Response.onFinished (5,742 samples, 9.70%)</title><rect x="424.6" y="339.0" width="114.5" height="15" fill="#6cfd6c" rx="2" ry="2"/>
<text x="427.6" y="350.0">jdk/internal/n..</text>
</g>
<g>
<title>jdk/internal/net/http/HttpConnection.closeOrReturnToCache (5,742 samples, 9.70%)</title><rect x="424.6" y="323.0" width="114.5" height="15" fill="#67f867" rx="2" ry="2"/>
<text x="427.6" y="334.0">jdk/internal/n..</text>
</g>
<g>
<title>jdk/internal/net/http/ConnectionPool.returnToPool (5,742 samples, 9.70%)</title><rect x="424.6" y="307.0" width="114.5" height="15" fill="#57e857" rx="2" ry="2"/>
<text x="427.6" y="318.0">jdk/internal/n..</text>
</g>
<g>
<title>jdk/internal/net/http/ConnectionPool.returnToPool (5,742 samples, 9.70%)</title><rect x="424.6" y="291.0" width="114.5" height="15" fill="#59ea59" rx="2" ry="2"/>
<text x="427.6" y="302.0">jdk/internal/n..</text>
</g>
<g>
<title>jdk/internal/net/http/ConnectionPool.registerCleanupTrigger (5,735 samples, 9.69%)</title><rect x="424.8" y="275.0" width="114.3" height="15" fill="#5aeb5a" rx="2" ry="2"/>
<text x="427.8" y="286.0">jdk/internal/n..</text>
</g>
<g>
<title>jdk/internal/net/http/SocketTube.connectFlows (5,735 samples, 9.69%)</title><rect x="424.8" y="259.0" width="114.3" height="15" fill="#50e150" rx="2" ry="2"/>
<text x="427.8" y="270.0">jdk/internal/n..</text>
</g>
<g>
<title>jdk/internal/net/http/ConnectionPool$CleanupTrigger.subscribe (2,646 samples, 4.47%)</title><rect x="424.8" y="243.0" width="52.7" height="15" fill="#60f160" rx="2" ry="2"/>
<text x="427.8" y="254.0">jdk/i..</text>
</g>
<g>
<title>jdk/internal/net/http/SocketTube.onSubscribe (2,646 samples, 4.47%)</title><rect x="424.8" y="227.0" width="52.7" height="15" fill="#58e958" rx="2" ry="2"/>
<text x="427.8" y="238.0">jdk/i..</text>
</g>
<g>
<title>jdk/internal/net/http/SocketTube$InternalWriteSubscriber.onSubscribe (2,646 samples, 4.47%)</title><rect x="424.8" y="211.0" width="52.7" height="15" fill="#51e251" rx="2" ry="2"/>
<text x="427.8" y="222.0">jdk/i..</text>
</g>
<g>
<title>jdk/internal/net/http/HttpClientImpl.registerEvent (2,646 samples, 4.47%)</title><rect x="424.8" y="195.0" width="52.7" height="15" fill="#56e756" rx="2" ry="2"/>
<text x="427.8" y="206.0">jdk/i..</text>
</g>
<g>
<title>jdk/internal/net/http/HttpClientImpl$SelectorManager.register (2,646 samples, 4.47%)</title><rect x="424.8" y="179.0" width="52.7" height="15" fill="#61f261" rx="2" ry="2"/>
<text x="427.8" y="190.0">jdk/i..</text>
</g>
<g>
<title>jdk.internal.net.http.HttpClientImpl$SelectorManager (606 samples, 1.02%)</title><rect x="424.8" y="163.0" width="12.1" height="15" fill="#5bc9c9" rx="2" ry="2"/>
<text x="427.8" y="174.0"></text>
</g>
<g>
<title>sun/nio/ch/EPollSelectorImpl.wakeup (2,040 samples, 3.45%)</title><rect x="436.9" y="163.0" width="40.6" height="15" fill="#6dfe6d" rx="2" ry="2"/>
<text x="439.9" y="174.0">sun..</text>
</g>
<g>
<title>java.lang.Object (2,040 samples, 3.45%)</title><rect x="436.9" y="147.0" width="40.6" height="15" fill="#6ad8d8" rx="2" ry="2"/>
<text x="439.9" y="158.0">jav..</text>
</g>
<g>
<title>jdk/internal/net/http/SocketTube.subscribe (3,089 samples, 5.22%)</title><rect x="477.5" y="243.0" width="61.6" height="15" fill="#58e958" rx="2" ry="2"/>
<text x="480.5" y="254.0">jdk/in..</text>
</g>
<g>
<title>jdk/internal/net/http/SocketTube$InternalReadPublisher.subscribe (3,089 samples, 5.22%)</title><rect x="477.5" y="227.0" width="61.6" height="15" fill="#6bfc6b" rx="2" ry="2"/>
<text x="480.5" y="238.0">jdk/in..</text>
</g>
<g>
<title>jdk/internal/net/http/SocketTube$InternalReadPublisher$InternalReadSubscription.signalSubscribe (3,089 samples, 5.22%)</title><rect x="477.5" y="211.0" width="61.6" height="15" fill="#61f261" rx="2" ry="2"/>
<text x="480.5" y="222.0">jdk/in..</text>
</g>
<g>
<title>jdk/internal/net/http/HttpClientImpl.registerEvent (3,089 samples, 5.22%)</title><rect x="477.5" y="195.0" width="61.6" height="15" fill="#64f564" rx="2" ry="2"/>
<text x="480.5" y="206.0">jdk/in..</text>
</g>
<g>
<title>jdk/internal/net/http/HttpClientImpl$SelectorManager.register (3,089 samples, 5.22%)</title><rect x="477.5" y="179.0" width="61.6" height="15" fill="#55e655" rx="2" ry="2"/>
<text x="480.5" y="190.0">jdk/in..</text>
</g>
<g>
<title>jdk.internal.net.http.HttpClientImpl$SelectorManager (2,111 samples, 3.57%)</title><rect x="477.5" y="163.0" width="42.1" height="15" fill="#62d0d0" rx="2" ry="2"/>
<text x="480.5" y="174.0">jdk...</text>
</g>
<g>
<title>sun/nio/ch/EPollSelectorImpl.wakeup (978 samples, 1.65%)</title><rect x="519.6" y="163.0" width="19.5" height="15" fill="#68f968" rx="2" ry="2"/>
<text x="522.6" y="174.0"></text>
</g>
<g>
<title>java.lang.Object (978 samples, 1.65%)</title><rect x="519.6" y="147.0" width="19.5" height="15" fill="#54c2c2" rx="2" ry="2"/>
<text x="522.6" y="158.0"></text>
</g>
<g>
<title>ru/mail/polis/service/httprest/HttpRestDemon$$Lambda$113/1746272309.run (17 samples, 0.03%)</title><rect x="539.1" y="515.0" width="0.4" height="15" fill="#67f867" rx="2" ry="2"/>
<text x="542.1" y="526.0"></text>
</g>
<g>
<title>ru/mail/polis/service/httprest/HttpRestDemon.lambda$asyncExecute$4 (17 samples, 0.03%)</title><rect x="539.1" y="499.0" width="0.4" height="15" fill="#5ff05f" rx="2" ry="2"/>
<text x="542.1" y="510.0"></text>
</g>
<g>
<title>ru/mail/polis/service/httprest/HttpRestDemon$ResponseUtils.sendResponse (17 samples, 0.03%)</title><rect x="539.1" y="483.0" width="0.4" height="15" fill="#69fa69" rx="2" ry="2"/>
<text x="542.1" y="494.0"></text>
</g>
<g>
<title>one/nio/http/HttpSession.sendResponse (17 samples, 0.03%)</title><rect x="539.1" y="467.0" width="0.4" height="15" fill="#61f261" rx="2" ry="2"/>
<text x="542.1" y="478.0"></text>
</g>
<g>
<title>ru.mail.polis.service.httprest.StorageSession (17 samples, 0.03%)</title><rect x="539.1" y="451.0" width="0.4" height="15" fill="#5ac8c8" rx="2" ry="2"/>
<text x="542.1" y="462.0"></text>
</g>
<g>
<title>jdk/internal/net/http/HttpClientImpl$SelectorManager.run (32,622 samples, 55.13%)</title><rect x="539.5" y="563.0" width="650.5" height="15" fill="#5ced5c" rx="2" ry="2"/>
<text x="542.5" y="574.0">jdk/internal/net/http/HttpClientImpl$SelectorManager.run</text>
</g>
<g>
<title>jdk.internal.net.http.HttpClientImpl$SelectorManager (24,879 samples, 42.04%)</title><rect x="539.5" y="547.0" width="496.1" height="15" fill="#5ac8c8" rx="2" ry="2"/>
<text x="542.5" y="558.0">jdk.internal.net.http.HttpClientImpl$SelectorManager</text>
</g>
<g>
<title>jdk/internal/net/http/ConnectionPool.purgeExpiredConnectionsAndReturnNextDeadline (18 samples, 0.03%)</title><rect x="1035.6" y="547.0" width="0.3" height="15" fill="#5eef5e" rx="2" ry="2"/>
<text x="1038.6" y="558.0"></text>
</g>
<g>
<title>jdk/internal/net/http/ConnectionPool.purgeExpiredConnectionsAndReturnNextDeadline (18 samples, 0.03%)</title><rect x="1035.6" y="531.0" width="0.3" height="15" fill="#5ff05f" rx="2" ry="2"/>
<text x="1038.6" y="542.0"></text>
</g>
<g>
<title>jdk.internal.net.http.ConnectionPool (18 samples, 0.03%)</title><rect x="1035.6" y="515.0" width="0.3" height="15" fill="#59c7c7" rx="2" ry="2"/>
<text x="1038.6" y="526.0"></text>
</g>
<g>
<title>jdk/internal/net/http/HttpClientImpl.purgeTimeoutsAndReturnNextDeadline (5,031 samples, 8.50%)</title><rect x="1035.9" y="547.0" width="100.4" height="15" fill="#57e857" rx="2" ry="2"/>
<text x="1038.9" y="558.0">jdk/internal..</text>
</g>
<g>
<title>jdk.internal.net.http.HttpClientImpl (5,031 samples, 8.50%)</title><rect x="1035.9" y="531.0" width="100.4" height="15" fill="#66d4d4" rx="2" ry="2"/>
<text x="1038.9" y="542.0">jdk.internal..</text>
</g>
<g>
<title>sun/nio/ch/SelectorImpl.select (2,694 samples, 4.55%)</title><rect x="1136.3" y="547.0" width="53.7" height="15" fill="#62f362" rx="2" ry="2"/>
<text x="1139.3" y="558.0">sun/n..</text>
</g>
<g>
<title>sun/nio/ch/SelectorImpl.lockAndDoSelect (2,694 samples, 4.55%)</title><rect x="1136.3" y="531.0" width="53.7" height="15" fill="#62f362" rx="2" ry="2"/>
<text x="1139.3" y="542.0">sun/n..</text>
</g>
<g>
<title>sun/nio/ch/EPollSelectorImpl.doSelect (2,694 samples, 4.55%)</title><rect x="1136.3" y="515.0" width="53.7" height="15" fill="#67f867" rx="2" ry="2"/>
<text x="1139.3" y="526.0">sun/n..</text>
</g>
<g>
<title>sun/nio/ch/EPollSelectorImpl.processEvents (2,694 samples, 4.55%)</title><rect x="1136.3" y="499.0" width="53.7" height="15" fill="#55e655" rx="2" ry="2"/>
<text x="1139.3" y="510.0">sun/n..</text>
</g>
<g>
<title>sun/nio/ch/EPollSelectorImpl.clearInterrupt (2,694 samples, 4.55%)</title><rect x="1136.3" y="483.0" width="53.7" height="15" fill="#6afb6a" rx="2" ry="2"/>
<text x="1139.3" y="494.0">sun/n..</text>
</g>
<g>
<title>java.lang.Object (2,694 samples, 4.55%)</title><rect x="1136.3" y="467.0" width="53.7" height="15" fill="#69d7d7" rx="2" ry="2"/>
<text x="1139.3" y="478.0">java...</text>
</g>
</g>
</svg>
