<?xml version="1.0" standalone="no"?>
<!DOCTYPE svg PUBLIC "-//W3C//DTD SVG 1.1//EN" "http://www.w3.org/Graphics/SVG/1.1/DTD/svg11.dtd">
<svg version="1.1" width="1200" height="310" onload="init(evt)" viewBox="0 0 1200 310" xmlns="http://www.w3.org/2000/svg" xmlns:xlink="http://www.w3.org/1999/xlink">
<style type="text/css">
	text { font-family:Verdana; font-size:12px; fill:rgb(0,0,0); }
	#search { opacity:0.1; cursor:pointer; }
	#search:hover, #search.show { opacity:1; }
	#subtitle { text-anchor:middle; font-color:rgb(160,160,160); }
	#title { text-anchor:middle; font-size:17px}
	#unzoom { cursor:pointer; }
	#frames > *:hover { stroke:black; stroke-width:0.5; cursor:pointer; }
	.hide { display:none; }
	.parent { opacity:0.5; }
</style>
<script type="text/ecmascript">
<![CDATA[
	"use strict";
	var details, searchbtn, unzoombtn, matchedtxt, svg, searching;
	function init(evt) {
		details = document.getElementById("details").firstChild;
		searchbtn = document.getElementById("search");
		unzoombtn = document.getElementById("unzoom");
		matchedtxt = document.getElementById("matched");
		svg = document.getElementsByTagName("svg")[0];
		searching = 0;
	}

	window.addEventListener("click", function(e) {
		var target = find_group(e.target);
		if (target) {
			if (target.nodeName == "a") {
				if (e.ctrlKey === false) return;
				e.preventDefault();
			}
			if (target.classList.contains("parent")) unzoom();
			zoom(target);
		}
		else if (e.target.id == "unzoom") unzoom();
		else if (e.target.id == "search") search_prompt();
	}, false)

	// mouse-over for info
	// show
	window.addEventListener("mouseover", function(e) {
		var target = find_group(e.target);
		if (target) details.nodeValue = "Function: " + g_to_text(target);
	}, false)

	// clear
	window.addEventListener("mouseout", function(e) {
		var target = find_group(e.target);
		if (target) details.nodeValue = ' ';
	}, false)

	// ctrl-F for search
	window.addEventListener("keydown",function (e) {
		if (e.keyCode === 114 || (e.ctrlKey && e.keyCode === 70)) {
			e.preventDefault();
			search_prompt();
		}
	}, false)

	// functions
	function find_child(node, selector) {
		var children = node.querySelectorAll(selector);
		if (children.length) return children[0];
		return;
	}
	function find_group(node) {
		var parent = node.parentElement;
		if (!parent) return;
		if (parent.id == "frames") return node;
		return find_group(parent);
	}
	function orig_save(e, attr, val) {
		if (e.attributes["_orig_" + attr] != undefined) return;
		if (e.attributes[attr] == undefined) return;
		if (val == undefined) val = e.attributes[attr].value;
		e.setAttribute("_orig_" + attr, val);
	}
	function orig_load(e, attr) {
		if (e.attributes["_orig_"+attr] == undefined) return;
		e.attributes[attr].value = e.attributes["_orig_" + attr].value;
		e.removeAttribute("_orig_"+attr);
	}
	function g_to_text(e) {
		var text = find_child(e, "title").firstChild.nodeValue;
		return (text)
	}
	function g_to_func(e) {
		var func = g_to_text(e);
		// if there's any manipulation we want to do to the function
		// name before it's searched, do it here before returning.
		return (func);
	}
	function update_text(e) {
		var r = find_child(e, "rect");
		var t = find_child(e, "text");
		var w = parseFloat(r.attributes.width.value) -3;
		var txt = find_child(e, "title").textContent.replace(/\([^(]*\)$/,"");
		t.attributes.x.value = parseFloat(r.attributes.x.value) + 3;

		// Smaller than this size won't fit anything
		if (w < 2 * 12 * 0.59) {
			t.textContent = "";
			return;
		}

		t.textContent = txt;
		// Fit in full text width
		if (/^ *$/.test(txt) || t.getSubStringLength(0, txt.length) < w)
			return;

		for (var x = txt.length - 2; x > 0; x--) {
			if (t.getSubStringLength(0, x + 2) <= w) {
				t.textContent = txt.substring(0, x) + "..";
				return;
			}
		}
		t.textContent = "";
	}

	// zoom
	function zoom_reset(e) {
		if (e.attributes != undefined) {
			orig_load(e, "x");
			orig_load(e, "width");
		}
		if (e.childNodes == undefined) return;
		for (var i = 0, c = e.childNodes; i < c.length; i++) {
			zoom_reset(c[i]);
		}
	}
	function zoom_child(e, x, ratio) {
		if (e.attributes != undefined) {
			if (e.attributes.x != undefined) {
				orig_save(e, "x");
				e.attributes.x.value = (parseFloat(e.attributes.x.value) - x - 10) * ratio + 10;
				if (e.tagName == "text")
					e.attributes.x.value = find_child(e.parentNode, "rect[x]").attributes.x.value + 3;
			}
			if (e.attributes.width != undefined) {
				orig_save(e, "width");
				e.attributes.width.value = parseFloat(e.attributes.width.value) * ratio;
			}
		}

		if (e.childNodes == undefined) return;
		for (var i = 0, c = e.childNodes; i < c.length; i++) {
			zoom_child(c[i], x - 10, ratio);
		}
	}
	function zoom_parent(e) {
		if (e.attributes) {
			if (e.attributes.x != undefined) {
				orig_save(e, "x");
				e.attributes.x.value = 10;
			}
			if (e.attributes.width != undefined) {
				orig_save(e, "width");
				e.attributes.width.value = parseInt(svg.width.baseVal.value) - (10 * 2);
			}
		}
		if (e.childNodes == undefined) return;
		for (var i = 0, c = e.childNodes; i < c.length; i++) {
			zoom_parent(c[i]);
		}
	}
	function zoom(node) {
		var attr = find_child(node, "rect").attributes;
		var width = parseFloat(attr.width.value);
		var xmin = parseFloat(attr.x.value);
		var xmax = parseFloat(xmin + width);
		var ymin = parseFloat(attr.y.value);
		var ratio = (svg.width.baseVal.value - 2 * 10) / width;

		// XXX: Workaround for JavaScript float issues (fix me)
		var fudge = 0.0001;

		unzoombtn.classList.remove("hide");

		var el = document.getElementById("frames").children;
		for (var i = 0; i < el.length; i++) {
			var e = el[i];
			var a = find_child(e, "rect").attributes;
			var ex = parseFloat(a.x.value);
			var ew = parseFloat(a.width.value);
			var upstack;
			// Is it an ancestor
			if (0 == 0) {
				upstack = parseFloat(a.y.value) > ymin;
			} else {
				upstack = parseFloat(a.y.value) < ymin;
			}
			if (upstack) {
				// Direct ancestor
				if (ex <= xmin && (ex+ew+fudge) >= xmax) {
					e.classList.add("parent");
					zoom_parent(e);
					update_text(e);
				}
				// not in current path
				else
					e.classList.add("hide");
			}
			// Children maybe
			else {
				// no common path
				if (ex < xmin || ex + fudge >= xmax) {
					e.classList.add("hide");
				}
				else {
					zoom_child(e, xmin, ratio);
					update_text(e);
				}
			}
		}
	}
	function unzoom() {
		unzoombtn.classList.add("hide");
		var el = document.getElementById("frames").children;
		for(var i = 0; i < el.length; i++) {
			el[i].classList.remove("parent");
			el[i].classList.remove("hide");
			zoom_reset(el[i]);
			update_text(el[i]);
		}
	}

	// search
	function reset_search() {
		var el = document.querySelectorAll("#frames rect");
		for (var i = 0; i < el.length; i++) {
			orig_load(el[i], "fill")
		}
	}
	function search_prompt() {
		if (!searching) {
			var term = prompt("Enter a search term (regexp " +
			    "allowed, eg: ^ext4_)", "");
			if (term != null) {
				search(term)
			}
		} else {
			reset_search();
			searching = 0;
			searchbtn.classList.remove("show");
			searchbtn.firstChild.nodeValue = "Search"
			matchedtxt.classList.add("hide");
			matchedtxt.firstChild.nodeValue = ""
		}
	}
	function search(term) {
		var re = new RegExp(term);
		var el = document.getElementById("frames").children;
		var matches = new Object();
		var maxwidth = 0;
		for (var i = 0; i < el.length; i++) {
			var e = el[i];
			var func = g_to_func(e);
			var rect = find_child(e, "rect");
			if (func == null || rect == null)
				continue;

			// Save max width. Only works as we have a root frame
			var w = parseFloat(rect.attributes.width.value);
			if (w > maxwidth)
				maxwidth = w;

			if (func.match(re)) {
				// highlight
				var x = parseFloat(rect.attributes.x.value);
				orig_save(rect, "fill");
				rect.attributes.fill.value = "rgb(230,0,230)";

				// remember matches
				if (matches[x] == undefined) {
					matches[x] = w;
				} else {
					if (w > matches[x]) {
						// overwrite with parent
						matches[x] = w;
					}
				}
				searching = 1;
			}
		}
		if (!searching)
			return;

		searchbtn.classList.add("show");
		searchbtn.firstChild.nodeValue = "Reset Search";

		// calculate percent matched, excluding vertical overlap
		var count = 0;
		var lastx = -1;
		var lastw = 0;
		var keys = Array();
		for (k in matches) {
			if (matches.hasOwnProperty(k))
				keys.push(k);
		}
		// sort the matched frames by their x location
		// ascending, then width descending
		keys.sort(function(a, b){
			return a - b;
		});
		// Step through frames saving only the biggest bottom-up frames
		// thanks to the sort order. This relies on the tree property
		// where children are always smaller than their parents.
		var fudge = 0.0001;	// JavaScript floating point
		for (var k in keys) {
			var x = parseFloat(keys[k]);
			var w = matches[keys[k]];
			if (x >= lastx + lastw - fudge) {
				count += w;
				lastx = x;
				lastw = w;
			}
		}
		// display matched percent
		matchedtxt.classList.remove("hide");
		var pct = 100 * count / maxwidth;
		if (pct != 100) pct = pct.toFixed(1)
		matchedtxt.firstChild.nodeValue = "Matched: " + pct + "%";
	}
]]>
</script>
<rect x="0" y="0" width="100%" height="100%" fill="rgb(240,240,220)"/>
<text id="title" x="600" y="24">Flame Graph</text>
<text id="details" x="10" y="293"> </text>
<text id="unzoom" x="10" y="24" class="hide">Reset Zoom</text>
<text id="search" x="1090" y="24">Search</text>
<text id="matched" x="1090" y="293"> </text>
<g id="frames">
<g>
<title>all (5,046 samples, 100.00%)</title><rect x="10.0" y="259.0" width="1180.0" height="15" fill="#e66161" rx="2" ry="2"/>
<text x="13.0" y="270.0">all</text>
</g>
<g>
<title>java/lang/Thread.run (567 samples, 11.24%)</title><rect x="10.0" y="243.0" width="132.6" height="15" fill="#50e150" rx="2" ry="2"/>
<text x="13.0" y="254.0">java/lang/Thread..</text>
</g>
<g>
<title>ru/mail/polis/dao/persistence/LSMDao$FlusherTask.run (567 samples, 11.24%)</title><rect x="10.0" y="227.0" width="132.6" height="15" fill="#6bfc6b" rx="2" ry="2"/>
<text x="13.0" y="238.0">ru/mail/polis/da..</text>
</g>
<g>
<title>ru/mail/polis/dao/persistence/LSMDao.flush (567 samples, 11.24%)</title><rect x="10.0" y="211.0" width="132.6" height="15" fill="#58e958" rx="2" ry="2"/>
<text x="13.0" y="222.0">ru/mail/polis/da..</text>
</g>
<g>
<title>java.io.File (3 samples, 0.06%)</title><rect x="10.0" y="195.0" width="0.7" height="15" fill="#68d6d6" rx="2" ry="2"/>
<text x="13.0" y="206.0"></text>
</g>
<g>
<title>ru/mail/polis/dao/persistence/FileTable.writeTable (564 samples, 11.18%)</title><rect x="10.7" y="195.0" width="131.9" height="15" fill="#63f463" rx="2" ry="2"/>
<text x="13.7" y="206.0">ru/mail/polis/da..</text>
</g>
<g>
<title>com/google/common/collect/TransformedIterator.next (27 samples, 0.54%)</title><rect x="10.7" y="179.0" width="6.3" height="15" fill="#64f564" rx="2" ry="2"/>
<text x="13.7" y="190.0"></text>
</g>
<g>
<title>java/util/Collections$UnmodifiableMap$UnmodifiableEntrySet$1.next (27 samples, 0.54%)</title><rect x="10.7" y="163.0" width="6.3" height="15" fill="#55e655" rx="2" ry="2"/>
<text x="13.7" y="174.0"></text>
</g>
<g>
<title>java/util/Collections$UnmodifiableMap$UnmodifiableEntrySet$1.next (27 samples, 0.54%)</title><rect x="10.7" y="147.0" width="6.3" height="15" fill="#51e251" rx="2" ry="2"/>
<text x="13.7" y="158.0"></text>
</g>
<g>
<title>java/util/concurrent/ConcurrentSkipListMap$SubMap$SubMapEntryIterator.next (27 samples, 0.54%)</title><rect x="10.7" y="131.0" width="6.3" height="15" fill="#6cfd6c" rx="2" ry="2"/>
<text x="13.7" y="142.0"></text>
</g>
<g>
<title>java/util/concurrent/ConcurrentSkipListMap$SubMap$SubMapEntryIterator.next (27 samples, 0.54%)</title><rect x="10.7" y="115.0" width="6.3" height="15" fill="#67f867" rx="2" ry="2"/>
<text x="13.7" y="126.0"></text>
</g>
<g>
<title>java.util.AbstractMap$SimpleImmutableEntry (27 samples, 0.54%)</title><rect x="10.7" y="99.0" width="6.3" height="15" fill="#53c1c1" rx="2" ry="2"/>
<text x="13.7" y="110.0"></text>
</g>
<g>
<title>java/lang/Integer.valueOf (15 samples, 0.30%)</title><rect x="17.0" y="179.0" width="3.5" height="15" fill="#69fa69" rx="2" ry="2"/>
<text x="20.0" y="190.0"></text>
</g>
<g>
<title>java.lang.Integer (15 samples, 0.30%)</title><rect x="17.0" y="163.0" width="3.5" height="15" fill="#56c4c4" rx="2" ry="2"/>
<text x="20.0" y="174.0"></text>
</g>
<g>
<title>java/nio/channels/FileChannel.open (3 samples, 0.06%)</title><rect x="20.5" y="179.0" width="0.7" height="15" fill="#6dfe6d" rx="2" ry="2"/>
<text x="23.5" y="190.0"></text>
</g>
<g>
<title>java/nio/channels/FileChannel.open (3 samples, 0.06%)</title><rect x="20.5" y="163.0" width="0.7" height="15" fill="#60f160" rx="2" ry="2"/>
<text x="23.5" y="174.0"></text>
</g>
<g>
<title>sun/nio/fs/UnixFileSystemProvider.newFileChannel (3 samples, 0.06%)</title><rect x="20.5" y="147.0" width="0.7" height="15" fill="#64f564" rx="2" ry="2"/>
<text x="23.5" y="158.0"></text>
</g>
<g>
<title>sun/nio/fs/UnixChannelFactory.newFileChannel (3 samples, 0.06%)</title><rect x="20.5" y="131.0" width="0.7" height="15" fill="#5dee5d" rx="2" ry="2"/>
<text x="23.5" y="142.0"></text>
</g>
<g>
<title>sun/nio/fs/UnixChannelFactory.newFileChannel (3 samples, 0.06%)</title><rect x="20.5" y="115.0" width="0.7" height="15" fill="#68f968" rx="2" ry="2"/>
<text x="23.5" y="126.0"></text>
</g>
<g>
<title>sun/nio/ch/FileChannelImpl.open (3 samples, 0.06%)</title><rect x="20.5" y="99.0" width="0.7" height="15" fill="#6afb6a" rx="2" ry="2"/>
<text x="23.5" y="110.0"></text>
</g>
<g>
<title>sun/nio/ch/FileChannelImpl.&lt;init&gt; (3 samples, 0.06%)</title><rect x="20.5" y="83.0" width="0.7" height="15" fill="#65f665" rx="2" ry="2"/>
<text x="23.5" y="94.0"></text>
</g>
<g>
<title>sun.nio.ch.NativeThreadSet (3 samples, 0.06%)</title><rect x="20.5" y="67.0" width="0.7" height="15" fill="#5ccaca" rx="2" ry="2"/>
<text x="23.5" y="78.0"></text>
</g>
<g>
<title>java/util/ArrayList.add (6 samples, 0.12%)</title><rect x="21.2" y="179.0" width="1.4" height="15" fill="#55e655" rx="2" ry="2"/>
<text x="24.2" y="190.0"></text>
</g>
<g>
<title>java/util/ArrayList.add (6 samples, 0.12%)</title><rect x="21.2" y="163.0" width="1.4" height="15" fill="#69fa69" rx="2" ry="2"/>
<text x="24.2" y="174.0"></text>
</g>
<g>
<title>java/util/ArrayList.grow (6 samples, 0.12%)</title><rect x="21.2" y="147.0" width="1.4" height="15" fill="#54e554" rx="2" ry="2"/>
<text x="24.2" y="158.0"></text>
</g>
<g>
<title>java/util/ArrayList.grow (6 samples, 0.12%)</title><rect x="21.2" y="131.0" width="1.4" height="15" fill="#64f564" rx="2" ry="2"/>
<text x="24.2" y="142.0"></text>
</g>
<g>
<title>java/util/Arrays.copyOf (6 samples, 0.12%)</title><rect x="21.2" y="115.0" width="1.4" height="15" fill="#59ea59" rx="2" ry="2"/>
<text x="24.2" y="126.0"></text>
</g>
<g>
<title>java.lang.Object[] (6 samples, 0.12%)</title><rect x="21.2" y="99.0" width="1.4" height="15" fill="#eb8700" rx="2" ry="2"/>
<text x="24.2" y="110.0"></text>
</g>
<g>
<title>ru/mail/polis/dao/persistence/Cell.getKey (65 samples, 1.29%)</title><rect x="22.6" y="179.0" width="15.2" height="15" fill="#5ff05f" rx="2" ry="2"/>
<text x="25.6" y="190.0"></text>
</g>
<g>
<title>java/nio/HeapByteBuffer.asReadOnlyBuffer (65 samples, 1.29%)</title><rect x="22.6" y="163.0" width="15.2" height="15" fill="#5dee5d" rx="2" ry="2"/>
<text x="25.6" y="174.0"></text>
</g>
<g>
<title>java.nio.HeapByteBufferR (65 samples, 1.29%)</title><rect x="22.6" y="147.0" width="15.2" height="15" fill="#63d1d1" rx="2" ry="2"/>
<text x="25.6" y="158.0"></text>
</g>
<g>
<title>ru/mail/polis/dao/persistence/FileTable.fromInt (300 samples, 5.95%)</title><rect x="37.8" y="179.0" width="70.2" height="15" fill="#65f665" rx="2" ry="2"/>
<text x="40.8" y="190.0">ru/mail/..</text>
</g>
<g>
<title>java/nio/ByteBuffer.allocate (300 samples, 5.95%)</title><rect x="37.8" y="163.0" width="70.2" height="15" fill="#5dee5d" rx="2" ry="2"/>
<text x="40.8" y="174.0">java/nio..</text>
</g>
<g>
<title>java.nio.HeapByteBuffer (189 samples, 3.75%)</title><rect x="37.8" y="147.0" width="44.2" height="15" fill="#60cece" rx="2" ry="2"/>
<text x="40.8" y="158.0">java..</text>
</g>
<g>
<title>java/nio/HeapByteBuffer.&lt;init&gt; (111 samples, 2.20%)</title><rect x="82.0" y="147.0" width="26.0" height="15" fill="#50e150" rx="2" ry="2"/>
<text x="85.0" y="158.0">j..</text>
</g>
<g>
<title>byte[] (111 samples, 2.20%)</title><rect x="82.0" y="131.0" width="26.0" height="15" fill="#58c6c6" rx="2" ry="2"/>
<text x="85.0" y="142.0">b..</text>
</g>
<g>
<title>ru/mail/polis/dao/persistence/FileTable.fromLong (91 samples, 1.80%)</title><rect x="108.0" y="179.0" width="21.3" height="15" fill="#55e655" rx="2" ry="2"/>
<text x="111.0" y="190.0">r..</text>
</g>
<g>
<title>java/nio/ByteBuffer.allocate (91 samples, 1.80%)</title><rect x="108.0" y="163.0" width="21.3" height="15" fill="#64f564" rx="2" ry="2"/>
<text x="111.0" y="174.0">j..</text>
</g>
<g>
<title>java.nio.HeapByteBuffer (56 samples, 1.11%)</title><rect x="108.0" y="147.0" width="13.1" height="15" fill="#5dcbcb" rx="2" ry="2"/>
<text x="111.0" y="158.0"></text>
</g>
<g>
<title>java/nio/HeapByteBuffer.&lt;init&gt; (35 samples, 0.69%)</title><rect x="121.1" y="147.0" width="8.2" height="15" fill="#57e857" rx="2" ry="2"/>
<text x="124.1" y="158.0"></text>
</g>
<g>
<title>byte[] (35 samples, 0.69%)</title><rect x="121.1" y="131.0" width="8.2" height="15" fill="#63d1d1" rx="2" ry="2"/>
<text x="124.1" y="142.0"></text>
</g>
<g>
<title>ru/mail/polis/dao/persistence/Value.getData (57 samples, 1.13%)</title><rect x="129.3" y="179.0" width="13.3" height="15" fill="#56e756" rx="2" ry="2"/>
<text x="132.3" y="190.0"></text>
</g>
<g>
<title>java/nio/HeapByteBuffer.asReadOnlyBuffer (57 samples, 1.13%)</title><rect x="129.3" y="163.0" width="13.3" height="15" fill="#5aeb5a" rx="2" ry="2"/>
<text x="132.3" y="174.0"></text>
</g>
<g>
<title>java.nio.HeapByteBufferR (57 samples, 1.13%)</title><rect x="129.3" y="147.0" width="13.3" height="15" fill="#5fcdcd" rx="2" ry="2"/>
<text x="132.3" y="158.0"></text>
</g>
<g>
<title>one/nio/server/AcceptorThread.run (2 samples, 0.04%)</title><rect x="142.6" y="243.0" width="0.5" height="15" fill="#5ced5c" rx="2" ry="2"/>
<text x="145.6" y="254.0"></text>
</g>
<g>
<title>one/nio/http/HttpServer.createSession (2 samples, 0.04%)</title><rect x="142.6" y="227.0" width="0.5" height="15" fill="#5aeb5a" rx="2" ry="2"/>
<text x="145.6" y="238.0"></text>
</g>
<g>
<title>one/nio/http/HttpServer.createSession (2 samples, 0.04%)</title><rect x="142.6" y="211.0" width="0.5" height="15" fill="#51e251" rx="2" ry="2"/>
<text x="145.6" y="222.0"></text>
</g>
<g>
<title>one/nio/server/SelectorThread.run (4,477 samples, 88.72%)</title><rect x="143.1" y="243.0" width="1046.9" height="15" fill="#52e352" rx="2" ry="2"/>
<text x="146.1" y="254.0">one/nio/server/SelectorThread.run</text>
</g>
<g>
<title>one/nio/net/NativeSelector.select (71 samples, 1.41%)</title><rect x="143.1" y="227.0" width="16.6" height="15" fill="#68f968" rx="2" ry="2"/>
<text x="146.1" y="238.0"></text>
</g>
<g>
<title>one.nio.net.NativeSelector$2 (71 samples, 1.41%)</title><rect x="143.1" y="211.0" width="16.6" height="15" fill="#6ad8d8" rx="2" ry="2"/>
<text x="146.1" y="222.0"></text>
</g>
<g>
<title>one/nio/net/Session.process (4,406 samples, 87.32%)</title><rect x="159.7" y="227.0" width="1030.3" height="15" fill="#6dfe6d" rx="2" ry="2"/>
<text x="162.7" y="238.0">one/nio/net/Session.process</text>
</g>
<g>
<title>one/nio/http/HttpSession.processRead (4,406 samples, 87.32%)</title><rect x="159.7" y="211.0" width="1030.3" height="15" fill="#5ff05f" rx="2" ry="2"/>
<text x="162.7" y="222.0">one/nio/http/HttpSession.processRead</text>
</g>
<g>
<title>one/nio/http/HttpSession.processHttpBuffer (4,406 samples, 87.32%)</title><rect x="159.7" y="195.0" width="1030.3" height="15" fill="#58e958" rx="2" ry="2"/>
<text x="162.7" y="206.0">one/nio/http/HttpSession.processHttpBuffer</text>
</g>
<g>
<title>one/nio/http/HttpSession.handleParsedRequest (2,254 samples, 44.67%)</title><rect x="159.7" y="179.0" width="527.1" height="15" fill="#55e655" rx="2" ry="2"/>
<text x="162.7" y="190.0">one/nio/http/HttpSession.handleParsedRequest</text>
</g>
<g>
<title>one/nio/http/HttpServer.handleRequest (2,254 samples, 44.67%)</title><rect x="159.7" y="163.0" width="527.1" height="15" fill="#5aeb5a" rx="2" ry="2"/>
<text x="162.7" y="174.0">one/nio/http/HttpServer.handleRequest</text>
</g>
<g>
<title>RequestHandler1_entity.handleRequest (2,055 samples, 40.73%)</title><rect x="159.7" y="147.0" width="480.5" height="15" fill="#5dee5d" rx="2" ry="2"/>
<text x="162.7" y="158.0">RequestHandler1_entity.handleRequest</text>
</g>
<g>
<title>one/nio/http/HttpSession.sendResponse (529 samples, 10.48%)</title><rect x="159.7" y="131.0" width="123.7" height="15" fill="#69fa69" rx="2" ry="2"/>
<text x="162.7" y="142.0">one/nio/http/Ht..</text>
</g>
<g>
<title>one/nio/http/HttpSession.writeResponse (529 samples, 10.48%)</title><rect x="159.7" y="115.0" width="123.7" height="15" fill="#64f564" rx="2" ry="2"/>
<text x="162.7" y="126.0">one/nio/http/Ht..</text>
</g>
<g>
<title>one/nio/http/Response.toBytes (361 samples, 7.15%)</title><rect x="159.7" y="99.0" width="84.4" height="15" fill="#67f867" rx="2" ry="2"/>
<text x="162.7" y="110.0">one/nio/ht..</text>
</g>
<g>
<title>one/nio/util/ByteArrayBuilder.&lt;init&gt; (361 samples, 7.15%)</title><rect x="159.7" y="83.0" width="84.4" height="15" fill="#5bec5b" rx="2" ry="2"/>
<text x="162.7" y="94.0">one/nio/ut..</text>
</g>
<g>
<title>byte[] (361 samples, 7.15%)</title><rect x="159.7" y="67.0" width="84.4" height="15" fill="#54c2c2" rx="2" ry="2"/>
<text x="162.7" y="78.0">byte[]</text>
</g>
<g>
<title>one/nio/net/Session.write (168 samples, 3.33%)</title><rect x="244.1" y="99.0" width="39.3" height="15" fill="#5ced5c" rx="2" ry="2"/>
<text x="247.1" y="110.0">one..</text>
</g>
<g>
<title>one.nio.net.Session$ArrayQueueItem (168 samples, 3.33%)</title><rect x="244.1" y="83.0" width="39.3" height="15" fill="#53c1c1" rx="2" ry="2"/>
<text x="247.1" y="94.0">one..</text>
</g>
<g>
<title>one/nio/http/Request.getParameter (212 samples, 4.20%)</title><rect x="283.4" y="131.0" width="49.5" height="15" fill="#62f362" rx="2" ry="2"/>
<text x="286.4" y="142.0">one/n..</text>
</g>
<g>
<title>java/lang/String.substring (212 samples, 4.20%)</title><rect x="283.4" y="115.0" width="49.5" height="15" fill="#6dfe6d" rx="2" ry="2"/>
<text x="286.4" y="126.0">java/..</text>
</g>
<g>
<title>java/lang/StringLatin1.newString (212 samples, 4.20%)</title><rect x="283.4" y="99.0" width="49.5" height="15" fill="#53e453" rx="2" ry="2"/>
<text x="286.4" y="110.0">java/..</text>
</g>
<g>
<title>java.lang.String (106 samples, 2.10%)</title><rect x="283.4" y="83.0" width="24.8" height="15" fill="#6ad8d8" rx="2" ry="2"/>
<text x="286.4" y="94.0">j..</text>
</g>
<g>
<title>java/util/Arrays.copyOfRange (106 samples, 2.10%)</title><rect x="308.2" y="83.0" width="24.7" height="15" fill="#54e554" rx="2" ry="2"/>
<text x="311.2" y="94.0">j..</text>
</g>
<g>
<title>byte[] (106 samples, 2.10%)</title><rect x="308.2" y="67.0" width="24.7" height="15" fill="#68d6d6" rx="2" ry="2"/>
<text x="311.2" y="78.0">b..</text>
</g>
<g>
<title>ru/mail/polis/service/httprest/HttpRestDemon.entity (1,314 samples, 26.04%)</title><rect x="332.9" y="131.0" width="307.3" height="15" fill="#59ea59" rx="2" ry="2"/>
<text x="335.9" y="142.0">ru/mail/polis/service/httprest/HttpRestDe..</text>
</g>
<g>
<title>java/lang/String.getBytes (77 samples, 1.53%)</title><rect x="332.9" y="115.0" width="18.1" height="15" fill="#5bec5b" rx="2" ry="2"/>
<text x="335.9" y="126.0"></text>
</g>
<g>
<title>java/lang/StringCoding.encode (77 samples, 1.53%)</title><rect x="332.9" y="99.0" width="18.1" height="15" fill="#5dee5d" rx="2" ry="2"/>
<text x="335.9" y="110.0"></text>
</g>
<g>
<title>java/lang/StringCoding.encodeUTF8 (77 samples, 1.53%)</title><rect x="332.9" y="83.0" width="18.1" height="15" fill="#5ff05f" rx="2" ry="2"/>
<text x="335.9" y="94.0"></text>
</g>
<g>
<title>java/util/Arrays.copyOf (77 samples, 1.53%)</title><rect x="332.9" y="67.0" width="18.1" height="15" fill="#66f766" rx="2" ry="2"/>
<text x="335.9" y="78.0"></text>
</g>
<g>
<title>byte[] (77 samples, 1.53%)</title><rect x="332.9" y="51.0" width="18.1" height="15" fill="#6ddbdb" rx="2" ry="2"/>
<text x="335.9" y="62.0"></text>
</g>
<g>
<title>java/nio/ByteBuffer.wrap (371 samples, 7.35%)</title><rect x="351.0" y="115.0" width="86.7" height="15" fill="#6cfd6c" rx="2" ry="2"/>
<text x="354.0" y="126.0">java/nio/B..</text>
</g>
<g>
<title>java/nio/ByteBuffer.wrap (371 samples, 7.35%)</title><rect x="351.0" y="99.0" width="86.7" height="15" fill="#52e352" rx="2" ry="2"/>
<text x="354.0" y="110.0">java/nio/B..</text>
</g>
<g>
<title>java.nio.HeapByteBuffer (371 samples, 7.35%)</title><rect x="351.0" y="83.0" width="86.7" height="15" fill="#50bebe" rx="2" ry="2"/>
<text x="354.0" y="94.0">java.nio.H..</text>
</g>
<g>
<title>one.nio.http.Response (96 samples, 1.90%)</title><rect x="437.7" y="115.0" width="22.5" height="15" fill="#51bfbf" rx="2" ry="2"/>
<text x="440.7" y="126.0">o..</text>
</g>
<g>
<title>one/nio/http/Response.&lt;init&gt; (345 samples, 6.84%)</title><rect x="460.2" y="115.0" width="80.6" height="15" fill="#6afb6a" rx="2" ry="2"/>
<text x="463.2" y="126.0">one/nio/h..</text>
</g>
<g>
<title>byte[] (150 samples, 2.97%)</title><rect x="460.2" y="99.0" width="35.0" height="15" fill="#6ad8d8" rx="2" ry="2"/>
<text x="463.2" y="110.0">byt..</text>
</g>
<g>
<title>java.lang.String[] (136 samples, 2.70%)</title><rect x="495.2" y="99.0" width="31.8" height="15" fill="#51bfbf" rx="2" ry="2"/>
<text x="498.2" y="110.0">ja..</text>
</g>
<g>
<title>java.lang.String (59 samples, 1.17%)</title><rect x="527.0" y="99.0" width="13.8" height="15" fill="#5ccaca" rx="2" ry="2"/>
<text x="530.0" y="110.0"></text>
</g>
<g>
<title>ru/mail/polis/dao/persistence/LSMDao.upsert (425 samples, 8.42%)</title><rect x="540.8" y="115.0" width="99.4" height="15" fill="#55e655" rx="2" ry="2"/>
<text x="543.8" y="126.0">ru/mail/poli..</text>
</g>
<g>
<title>ru/mail/polis/dao/persistence/MemTablesPool.upsert (425 samples, 8.42%)</title><rect x="540.8" y="99.0" width="99.4" height="15" fill="#56e756" rx="2" ry="2"/>
<text x="543.8" y="110.0">ru/mail/poli..</text>
</g>
<g>
<title>ru/mail/polis/dao/persistence/MemTable.upsert (425 samples, 8.42%)</title><rect x="540.8" y="83.0" width="99.4" height="15" fill="#67f867" rx="2" ry="2"/>
<text x="543.8" y="94.0">ru/mail/poli..</text>
</g>
<g>
<title>java/util/concurrent/ConcurrentSkipListMap.put (29 samples, 0.57%)</title><rect x="540.8" y="67.0" width="6.8" height="15" fill="#62f362" rx="2" ry="2"/>
<text x="543.8" y="78.0"></text>
</g>
<g>
<title>java/util/concurrent/ConcurrentSkipListMap.doPut (29 samples, 0.57%)</title><rect x="540.8" y="51.0" width="6.8" height="15" fill="#52e352" rx="2" ry="2"/>
<text x="543.8" y="62.0"></text>
</g>
<g>
<title>java.util.concurrent.ConcurrentSkipListMap$Index (12 samples, 0.24%)</title><rect x="540.8" y="35.0" width="2.8" height="15" fill="#5dcbcb" rx="2" ry="2"/>
<text x="543.8" y="46.0"></text>
</g>
<g>
<title>java.util.concurrent.ConcurrentSkipListMap$Node (17 samples, 0.34%)</title><rect x="543.6" y="35.0" width="4.0" height="15" fill="#5ccaca" rx="2" ry="2"/>
<text x="546.6" y="46.0"></text>
</g>
<g>
<title>ru/mail/polis/dao/persistence/Value.getData (136 samples, 2.70%)</title><rect x="547.6" y="67.0" width="31.8" height="15" fill="#5dee5d" rx="2" ry="2"/>
<text x="550.6" y="78.0">ru..</text>
</g>
<g>
<title>java/nio/HeapByteBuffer.asReadOnlyBuffer (136 samples, 2.70%)</title><rect x="547.6" y="51.0" width="31.8" height="15" fill="#62f362" rx="2" ry="2"/>
<text x="550.6" y="62.0">ja..</text>
</g>
<g>
<title>java.nio.HeapByteBufferR (136 samples, 2.70%)</title><rect x="547.6" y="35.0" width="31.8" height="15" fill="#69d7d7" rx="2" ry="2"/>
<text x="550.6" y="46.0">ja..</text>
</g>
<g>
<title>ru/mail/polis/dao/persistence/Value.of (260 samples, 5.15%)</title><rect x="579.4" y="67.0" width="60.8" height="15" fill="#60f160" rx="2" ry="2"/>
<text x="582.4" y="78.0">ru/mai..</text>
</g>
<g>
<title>java/nio/HeapByteBuffer.duplicate (167 samples, 3.31%)</title><rect x="579.4" y="51.0" width="39.1" height="15" fill="#56e756" rx="2" ry="2"/>
<text x="582.4" y="62.0">jav..</text>
</g>
<g>
<title>java.nio.HeapByteBuffer (167 samples, 3.31%)</title><rect x="579.4" y="35.0" width="39.1" height="15" fill="#68d6d6" rx="2" ry="2"/>
<text x="582.4" y="46.0">jav..</text>
</g>
<g>
<title>ru.mail.polis.dao.nadenokk.Value (93 samples, 1.84%)</title><rect x="618.5" y="51.0" width="21.7" height="15" fill="#64d2d2" rx="2" ry="2"/>
<text x="621.5" y="62.0">r..</text>
</g>
<g>
<title>one/nio/http/Request.getPath (199 samples, 3.94%)</title><rect x="640.2" y="147.0" width="46.6" height="15" fill="#52e352" rx="2" ry="2"/>
<text x="643.2" y="158.0">one/..</text>
</g>
<g>
<title>java/lang/String.substring (199 samples, 3.94%)</title><rect x="640.2" y="131.0" width="46.6" height="15" fill="#6cfd6c" rx="2" ry="2"/>
<text x="643.2" y="142.0">java..</text>
</g>
<g>
<title>java/lang/StringLatin1.newString (199 samples, 3.94%)</title><rect x="640.2" y="115.0" width="46.6" height="15" fill="#5eef5e" rx="2" ry="2"/>
<text x="643.2" y="126.0">java..</text>
</g>
<g>
<title>java.lang.String (84 samples, 1.66%)</title><rect x="640.2" y="99.0" width="19.7" height="15" fill="#5bc9c9" rx="2" ry="2"/>
<text x="643.2" y="110.0"></text>
</g>
<g>
<title>java/util/Arrays.copyOfRange (115 samples, 2.28%)</title><rect x="659.9" y="99.0" width="26.9" height="15" fill="#5aeb5a" rx="2" ry="2"/>
<text x="662.9" y="110.0">j..</text>
</g>
<g>
<title>byte[] (115 samples, 2.28%)</title><rect x="659.9" y="83.0" width="26.9" height="15" fill="#6bd9d9" rx="2" ry="2"/>
<text x="662.9" y="94.0">b..</text>
</g>
<g>
<title>one/nio/http/HttpSession.parseRequest (939 samples, 18.61%)</title><rect x="686.8" y="179.0" width="219.5" height="15" fill="#6bfc6b" rx="2" ry="2"/>
<text x="689.8" y="190.0">one/nio/http/HttpSession.pars..</text>
</g>
<g>
<title>one.nio.http.Request (190 samples, 3.77%)</title><rect x="686.8" y="163.0" width="44.4" height="15" fill="#53c1c1" rx="2" ry="2"/>
<text x="689.8" y="174.0">one...</text>
</g>
<g>
<title>one/nio/http/Request.&lt;init&gt; (288 samples, 5.71%)</title><rect x="731.2" y="163.0" width="67.3" height="15" fill="#6bfc6b" rx="2" ry="2"/>
<text x="734.2" y="174.0">one/nio..</text>
</g>
<g>
<title>java.lang.String[] (288 samples, 5.71%)</title><rect x="731.2" y="147.0" width="67.3" height="15" fill="#6ad8d8" rx="2" ry="2"/>
<text x="734.2" y="158.0">java.la..</text>
</g>
<g>
<title>one/nio/util/Utf8.read (461 samples, 9.14%)</title><rect x="798.5" y="163.0" width="107.8" height="15" fill="#55e655" rx="2" ry="2"/>
<text x="801.5" y="174.0">one/nio/util/..</text>
</g>
<g>
<title>one/nio/util/Utf8.read (461 samples, 9.14%)</title><rect x="798.5" y="147.0" width="107.8" height="15" fill="#6bfc6b" rx="2" ry="2"/>
<text x="801.5" y="158.0">one/nio/util/..</text>
</g>
<g>
<title>char[] (243 samples, 4.82%)</title><rect x="798.5" y="131.0" width="56.9" height="15" fill="#6bd9d9" rx="2" ry="2"/>
<text x="801.5" y="142.0">char[]</text>
</g>
<g>
<title>java.lang.String (92 samples, 1.82%)</title><rect x="855.4" y="131.0" width="21.5" height="15" fill="#52c0c0" rx="2" ry="2"/>
<text x="858.4" y="142.0">j..</text>
</g>
<g>
<title>java/lang/String.&lt;init&gt; (126 samples, 2.50%)</title><rect x="876.9" y="131.0" width="29.4" height="15" fill="#68f968" rx="2" ry="2"/>
<text x="879.9" y="142.0">ja..</text>
</g>
<g>
<title>java/lang/String.&lt;init&gt; (126 samples, 2.50%)</title><rect x="876.9" y="115.0" width="29.4" height="15" fill="#6dfe6d" rx="2" ry="2"/>
<text x="879.9" y="126.0">ja..</text>
</g>
<g>
<title>java/lang/StringUTF16.compress (126 samples, 2.50%)</title><rect x="876.9" y="99.0" width="29.4" height="15" fill="#5ff05f" rx="2" ry="2"/>
<text x="879.9" y="110.0">ja..</text>
</g>
<g>
<title>byte[] (126 samples, 2.50%)</title><rect x="876.9" y="83.0" width="29.4" height="15" fill="#50bebe" rx="2" ry="2"/>
<text x="879.9" y="94.0">by..</text>
</g>
<g>
<title>one/nio/http/HttpSession.startParsingRequestBody (111 samples, 2.20%)</title><rect x="906.3" y="179.0" width="26.0" height="15" fill="#55e655" rx="2" ry="2"/>
<text x="909.3" y="190.0">o..</text>
</g>
<g>
<title>byte[] (111 samples, 2.20%)</title><rect x="906.3" y="163.0" width="26.0" height="15" fill="#58c6c6" rx="2" ry="2"/>
<text x="909.3" y="174.0">b..</text>
</g>
<g>
<title>one/nio/http/Request.getHeader (166 samples, 3.29%)</title><rect x="932.3" y="179.0" width="38.8" height="15" fill="#62f362" rx="2" ry="2"/>
<text x="935.3" y="190.0">one..</text>
</g>
<g>
<title>java/lang/String.substring (166 samples, 3.29%)</title><rect x="932.3" y="163.0" width="38.8" height="15" fill="#57e857" rx="2" ry="2"/>
<text x="935.3" y="174.0">jav..</text>
</g>
<g>
<title>java/lang/StringLatin1.newString (166 samples, 3.29%)</title><rect x="932.3" y="147.0" width="38.8" height="15" fill="#66f766" rx="2" ry="2"/>
<text x="935.3" y="158.0">jav..</text>
</g>
<g>
<title>java.lang.String (85 samples, 1.68%)</title><rect x="932.3" y="131.0" width="19.9" height="15" fill="#51bfbf" rx="2" ry="2"/>
<text x="935.3" y="142.0"></text>
</g>
<g>
<title>java/util/Arrays.copyOfRange (81 samples, 1.61%)</title><rect x="952.2" y="131.0" width="18.9" height="15" fill="#65f665" rx="2" ry="2"/>
<text x="955.2" y="142.0"></text>
</g>
<g>
<title>byte[] (81 samples, 1.61%)</title><rect x="952.2" y="115.0" width="18.9" height="15" fill="#5ac8c8" rx="2" ry="2"/>
<text x="955.2" y="126.0"></text>
</g>
<g>
<title>one/nio/util/Utf8.read (936 samples, 18.55%)</title><rect x="971.1" y="179.0" width="218.9" height="15" fill="#6afb6a" rx="2" ry="2"/>
<text x="974.1" y="190.0">one/nio/util/Utf8.read</text>
</g>
<g>
<title>one/nio/util/Utf8.read (936 samples, 18.55%)</title><rect x="971.1" y="163.0" width="218.9" height="15" fill="#58e958" rx="2" ry="2"/>
<text x="974.1" y="174.0">one/nio/util/Utf8.read</text>
</g>
<g>
<title>char[] (470 samples, 9.31%)</title><rect x="971.1" y="147.0" width="109.9" height="15" fill="#60cece" rx="2" ry="2"/>
<text x="974.1" y="158.0">char[]</text>
</g>
<g>
<title>java.lang.String (148 samples, 2.93%)</title><rect x="1081.0" y="147.0" width="34.6" height="15" fill="#64d2d2" rx="2" ry="2"/>
<text x="1084.0" y="158.0">ja..</text>
</g>
<g>
<title>java/lang/String.&lt;init&gt; (318 samples, 6.30%)</title><rect x="1115.6" y="147.0" width="74.4" height="15" fill="#6cfd6c" rx="2" ry="2"/>
<text x="1118.6" y="158.0">java/lan..</text>
</g>
<g>
<title>java/lang/String.&lt;init&gt; (318 samples, 6.30%)</title><rect x="1115.6" y="131.0" width="74.4" height="15" fill="#62f362" rx="2" ry="2"/>
<text x="1118.6" y="142.0">java/lan..</text>
</g>
<g>
<title>java/lang/StringUTF16.compress (318 samples, 6.30%)</title><rect x="1115.6" y="115.0" width="74.4" height="15" fill="#63f463" rx="2" ry="2"/>
<text x="1118.6" y="126.0">java/lan..</text>
</g>
<g>
<title>byte[] (318 samples, 6.30%)</title><rect x="1115.6" y="99.0" width="74.4" height="15" fill="#5ccaca" rx="2" ry="2"/>
<text x="1118.6" y="110.0">byte[]</text>
</g>
</g>
</svg>
